<?xml version="1.0" encoding="utf-8"?>
<!-- Generator: Adobe Illustrator 23.0.4, SVG Export Plug-In . SVG Version: 6.00 Build 0)  -->
<svg version="1.1" id="Layer_1" xmlns="http://www.w3.org/2000/svg" xmlns:xlink="http://www.w3.org/1999/xlink" x="0px" y="0px"
	 viewBox="0 0 1938.8 1122.5" style="enable-background:new 0 0 1938.8 1122.5;" xml:space="preserve">
<style type="text/css">
	.st0{fill:#1B1B1B;}
	.st1{fill:#616161;}
	.st2{fill:#1D1D1D;}
	.st3{fill:#A63131;fill-opacity:0.7;}
	.st4{fill:#CCDBE0;}
	.st5{fill:#646464;}
	.st6{fill:#4D4D4D;}
	.st7{fill:#909090;}
	.st8{fill:#8A8A8A;}
	.st9{fill:none;stroke:#454545;stroke-width:2.72;stroke-linecap:square;}
	.st10{fill:#1E1E1E;}
	.st11{fill:#4D4D4D;fill-opacity:0.67;}
	.st12{fill:#454545;}
	.st13{fill:#BEBEBE;}
	.st14{fill:#858585;}
	.st15{fill:#BEBEBE;fill-opacity:0.94;}
	.st16{fill:#BEBEBE;fill-opacity:0.69;}
	.st17{fill:none;stroke:#000000;stroke-width:1.51;stroke-linecap:square;}
	.st18{opacity:0.93;fill:#FCC329;enable-background:new    ;}
	.st19{fill:#FF9702;fill-opacity:0.8;}
	.st20{fill:#FF9702;fill-opacity:0.85;}
	.st21{fill:#ECF1F2;}
	.st22{opacity:0.72;fill:#FCC329;enable-background:new    ;}
	.st23{fill:#E8E6CB;}
	.st24{fill:none;stroke:#4D4D4D;stroke-width:0.76;stroke-linecap:square;}
	.st25{fill:none;stroke:#4D4D4D;stroke-width:0.61;stroke-linecap:square;}
	.st26{fill:none;stroke:#4D4D4D;stroke-width:1.36;stroke-linecap:square;}
	.st27{fill:none;stroke:#4D4D4D;stroke-width:1.06;stroke-linecap:square;}
	.st28{fill:none;stroke:#4D4D4D;stroke-width:0.91;stroke-linecap:square;}
	.st29{fill:none;stroke:#4D4D4D;stroke-width:0.45;stroke-linecap:square;}
	.st30{fill:#C1281A;fill-opacity:0.55;}
	.st31{fill:#DCE8EB;}
	.st32{fill:#0B437F;}
</style>
<g transform="translate(1024 1024)">
	<path class="st0" d="M867.2-297.4c83.9-60,52.4-150.6-59.3-166.1c-103-14.3-700.2-52.5-700.2-52.5
		c-33.1-46.3-296.2,83.2-381.6,144.3l-504.9,176c-83.9,60-285.7,106.8-159.1,155.1C-811.4,7.8-131.3,112.5,66.2,99.8
		c197.5-12.7,389.4-128.9,474.7-190L867.2-297.4L867.2-297.4z"/>
	<path d="M-439.6-75.2c54.8,6.1,371.8,46.6,422.9,6.1C20-98.2-82.5-183.3-82.5-183.3c1.3-11.3-42-25.5-97.8-31.8l-631.2-59.6
		c-54.8-6.1-123.4-13.2-124.7-1.7c0,0-8.8,44,3.2,75.9c12.8,34,93.8,58.6,149.6,64.8L-439.6-75.2L-439.6-75.2z"/>
	<path class="st1" d="M476.7-716.8c16,8.3,129.5-32.1,137.9-47.6l84.9-65.7c2.6-18.8-5.8-32.4-22.9-35.1l-465.7-32.6
		c-16-8.3-66.7,40.7-75.1,57l189.4,63.3c-8.3,16,1.6,39.8,17.8,48.2L476.7-716.8L476.7-716.8z"/>
	<path class="st2" d="M387.9-749.4c12.4,6.5,101.4-24.4,108-36.5l66.7-50.9c6.5-12.4-5.1-20.9-17.8-27.6l-287-22.9
		c-12.4-6.5-28.4-4-35,8.7l46.9,80.9c-6.5,12.4,1,31.1,13.7,37.7L387.9-749.4L387.9-749.4z"/>
	<path class="st3" d="M402.4-679.3c11.9,1.1,7.4-112.4,8.7-124.1l23.9-46.9c1.1-11.9-15.7-12.2-27.8-13.3l-155.5-10.5
		c-11.9-1.1,7.7,8.5,6.6,20.6l-13.1,137.4c-1.1,11.9,7.5,22.6,19.6,23.7L402.4-679.3L402.4-679.3z"/>
	<path class="st4" d="M318.9-650c0,0-65.8-319.2-84.7-326.3c-7.2,38.1-25.3,344.7-25.3,344.7L318.9-650L318.9-650z"/>
	<path d="M349.3-447.2l-494.8-108.6L178.2-260L349.3-447.2L349.3-447.2z"/>
	<path d="M-960.4-322.6c222.5,62.1,884,28.4,884,28.4l-29.3-179l-860.6-69.4C-966.3-542.6-1017.6-512.6-960.4-322.6L-960.4-322.6z"
		/>
	<path class="st5" d="M-540.5-793.8c5.7-21.2-1.6-40.9-9.3-43.6c-13-4.5-38.7-13.1-44.4-11c-9.7,3.5-19.6,14-19.6,19.2
		c0,38.5-8.2,35.2,21.8,55.7c12.4,8.5,46.8,38.3,46.8,38.3L-540.5-793.8L-540.5-793.8z"/>
	<path class="st6" d="M-568.6-782.6c4.2-15.6-1.3-26.7-16.9-30.9l-27.1-11.3l0.8,26.2c1.1,11.4,4,12.3,18.2,21.8l31.9,27.8
		L-568.6-782.6z"/>
	<g>
		<path class="st6" d="M-556.7-810.8c6.4-1,10-3.9,12.7-9.1c0.8-1.5-1.3-10.7-3.7-12.5c-2.4-1.8-8.8,1.2-10.4,2.8
			c-1.6,1.6-3.1,1-4.8,8.1l-4,35.2C-567-786.3-563.1-809.8-556.7-810.8z"/>
	</g>
	<path class="st7" d="M228.2-985.8c-133.4-22.9-363.7-37.2-584.9-38.2c-150.5,138.2-254.7,303-254.7,303l819.8,72.1
		C208.4-648.9,217-834.5,228.2-985.8L228.2-985.8z"/>
	<path class="st4" d="M214-960.9c-111.1-16.9-382.8-48-567.6-44.6c-115,114.6-147.7,154.1-223.8,256.9c154.3,14.4,640,62,764.2,73.4
		C182.1-751.2,198.4-887.9,214-960.9L214-960.9z"/>
	<g>
		<path class="st8" d="M-611-724.2c-285.2,110.1-372.8,161.7-374.4,228c1-3.5,8-17.7,17.5-17.6c85.1,1.3,493.2,58.2,776.4,70
			c265.9-147.6,400-205.9,400-205.9S-347.3-735.8-611-724.2L-611-724.2z"/>
	</g>
	<path class="st9" d="M-131.1-424c-35.7,20.8-812.4-57-853.2-77"/>
	<path class="st9" d="M-133-410.8c-35.7,20.8-812.4-57-853.2-77"/>
	<path class="st9" d="M-133.9-397.2c-35.7,20.8-812.4-57-853.2-77"/>
	<path class="st9" d="M-133-386.4c-35.7,20.8-812.4-57-853.2-77"/>
	<path class="st9" d="M-134.9-376.1c-35.7,20.8-812.4-57-853.2-77"/>
	<path class="st9" d="M-133.9-363.4c-35.7,20.8-812.4-57-853.2-77"/>
	<path class="st9" d="M-131.1-349.3c-35.7,20.8-812.4-57-853.2-77"/>
	<path class="st9" d="M-127.4-335.8c-35.7,20.8-812.4-57-853.2-77"/>
	<path class="st6" d="M-81.5-90.1c12.4,43.6,51.4,49.8,87,48.9L71-42.9l-1.7-65.5c-0.9-35.7-30.5-63.7-66.1-62.8l-93.8-30.2
		C-90.6-201.4-93.8-133.7-81.5-90.1L-81.5-90.1z"/>
	<path d="M615.4-729.5c-17.8,3.1-29.7,20.1-26.6,37.9l16.9,96.6c3.1,17.8,20.1,29.7,37.9,26.6c17.8-3.1,29.7-20.1,26.6-37.9
		l-16.9-96.6C650.2-720.7,633.1-732.6,615.4-729.5z"/>
	<path class="st6" d="M501.9-407c12.4,43.6,26.5,44.8,61,45.9s38-3.2,38-3.2l2.5-117.9c-0.9-35.7-14.5-98.7-50.2-97.7L509-544.4
		C509.1-544.3,489.6-450.6,501.9-407L501.9-407z"/>
	<path class="st10" d="M173.5-225c12.7-107.4-19.2-199.4-71.1-205.6c-51.9-6.1-104.3,76-116.9,183.4C-27.2-139.8,4.7-47.8,56.6-41.7
		C108.5-35.5,160.8-117.6,173.5-225L173.5-225z"/>
	<path class="st10" d="M647.5-511.4c3.5-82.4-14.1-150.1-39.2-151.2c-25.1-1.1-48.4,64.9-51.9,147.3s14.1,150.1,39.2,151.2
		C620.7-363,644-428.9,647.5-511.4z"/>
	<path class="st11" d="M150.6-222.9c6-78.7-17.2-144.6-51.8-147.2c-34.6-2.6-67.5,59-73.5,137.7S42.5-87.8,77.1-85.2
		C111.7-82.6,144.6-144.3,150.6-222.9z"/>
	<path class="st11" d="M634.2-501.3c4.5-59-5.3-107.8-21.8-109.1c-16.5-1.3-33.5,45.5-38,104.5s5.3,107.8,21.8,109.1
		S629.7-442.3,634.2-501.3L634.2-501.3z"/>
	<path class="st1" d="M-143.2-214.2c0,0,56.1,16.8,151.3-7.1c46.8-340.1,211.4-273.6,175.6-76.8c0.3-0.2,0.6-0.4,0.9-0.5
		c144.9-89.7,280.3-136.2,379.3-197.2c44.3-246.3,113.9-213,101.8-86.6c4.8-6.1,9.3-12.4,13.5-19c21.2-32.8,22.8-210.7,22.8-210.7
		S62.3-547-189.6-443.9C-91.2-420.7-143.2-214.2-143.2-214.2L-143.2-214.2z"/>
	<path class="st12" d="M-116.9-137.4c28.8-1.4,56.5-1,90.1-12.7C11.1-192.9,9-239.3,14.7-257.6c-477.5,35.6-759.6-23-1004.1-73.1
		c0.7,36.9-2.5,73.4,5.4,78.1c7.3,4.4,36.6,11.7,158.3,36.6C-627.5-175.6-206-133.2-116.9-137.4L-116.9-137.4z"/>
	<path d="M384.5-719c4.7-7.7-3.5-93,10.9-132.4c2.5-6.9,7.1-12.4,31-9.8c-39.8-7.6-41.6-0.1-44.9,11.5
		c-6.4,22.9-2.5,134.1-2.5,134.1S383.3-681.9,384.5-719L384.5-719z"/>
	<path class="st13" d="M171.7-550.4c0,0-159.4,62.1-363.9,106.4c121.2-83,608-312,872.6-413.5c26.9-10.3,21.5,50.6,21.5,50.6
		L171.7-550.4L171.7-550.4z"/>
	<path d="M206.6-649.3l329.5-149.1l-10-11l-25.9,1L213.9-664.1L206.6-649.3L206.6-649.3z"/>
	<path class="st14" d="M364-709.5c7.6-4.9,8.4-20.7,8.4-20.7s4.5-31.1-3.6-41.2c-8.8-11-70.1-10.5-90.9-5.8
		c-7.2,1.6-24.7,25.6-34,26.2c-35.5,2.3-26.6-3.2-30.1,3c-1.6,2.9-1.4,13.4-2.6,30.5c-1.3,20-2.1,56.2-3,67.2
		c-0.4,5,16.8-19.3,31.2-26c31.6-14.5,31.7-12.5,49.6-17.6C327-704.6,356.3-704.6,364-709.5L364-709.5z"/>
	<path class="st15" d="M330.7-751.5c11.2-1,18.6-2.1,21.2-3.2c2.6-1.1,5.7-1.9,9.5-7.3c0,0,6.3-6.4,3.3-9.5
		c-2.9-3.1-13.7-3.6-28.8-4.7c-15.2-1.1-55.8,2.3-55.8,2.3l-23,25L330.7-751.5z"/>
	<path class="st16" d="M248.4-689.7c-0.9-18-10.4-44.9-17.5-56c-5.1,27.9-14.4,76.2-14.4,76.2S231.9-683.5,248.4-689.7L248.4-689.7z
		"/>
	<g>
		<path d="M441.8-679.6l35.4-11.5c0,0-0.8-12.7-5.7-14.5c-4.9-1.7-28.2,6.3-31,10.7C437.7-690.5,441.8-679.6,441.8-679.6z"/>
	</g>
	<path d="M185.6-393.2c1.7,13.6,1.9,11,2.3,19.3C289-422.4,578.2-562.4,578.2-562.4l6.4-23C584.6-585.4,284.9-444.1,185.6-393.2
		L185.6-393.2z"/>
	<path class="st4" d="M186.9-388l12.6-2.9L571-570.2l12-10.3L186.9-388L186.9-388z"/>
	<path class="st17" d="M443.9-760.9c61.4,48.5,40.3,173.5,8.1,321.1"/>
	<path class="st17" d="M209.2-649.9c50,37.8,16.3,282.4,0.8,337.8"/>
	<path d="M553-464.6c10.3-24.6,12.2-38.6,12.2-38.6L185-304.5l-5.5,45.4C179.5-259.2,456.7-403.4,553-464.6L553-464.6z"/>
	<g>
		<polygon class="st18" points="-966.1,-256 -880.6,-240.8 -881.9,-286.6 -966.2,-299.9 		"/>
	</g>
	<g>
		<path d="M-113.9-200.5c30.3,0.1,92.7-30.1,125.7-47.6c4-27.9,10.1-50.1,15.7-68.5C-450-281-775-333.4-1019.5-383.5
			c-5.3,36.9-8.7,58.1,6.7,69c18.3,12.9,68.3,18.5,190,43.4C-624.6-230.6-203.2-200.9-113.9-200.5L-113.9-200.5z"/>
	</g>
	<path class="st4" d="M-131.2-266.4c48.8-11.3,94.2-28,129.1-39.6c34.9-11.5,27.1-7.3,32.8-25.7c-477.5,35.6-771.9-27.4-1016.4-77.5
		c-88.6,42.6,5.6,48.4,190.1,79.4S-200.9-250.3-131.2-266.4L-131.2-266.4z"/>
	<path class="st19" d="M-307.1-216.2l98.2,5l2.3-45.3l-100.1-5.8L-307.1-216.2L-307.1-216.2z"/>
	<path class="st20" d="M-978.9-310.5l82,16.1l6.4-41.3l-83.9-16.1L-978.9-310.5L-978.9-310.5z"/>
	<path class="st21" d="M-798.5-261c8.4,9.1,314.3,53.6,321.1,48.6s12.7-61.6,1.3-73.3c-11.4-11.7-309.5-46.2-317.2-42.1
		S-806.9-270-798.5-261L-798.5-261z"/>
	<g>
		<polygon class="st22" points="-281.9,-153.9 -158.1,-148.7 -156.3,-193.8 -279.5,-199.7 		"/>
	</g>
	<path class="st23" d="M-207-336.4c25.5-2.4,44.2-24.9,41.8-50.4c-2.4-25.5-24.9-44.2-50.4-41.8c-25.5,2.4-44.2,24.9-41.8,50.4
		C-255-352.7-232.5-334-207-336.4L-207-336.4z"/>
	<path class="st23" d="M-836.4-405.8c23.9-3,40.8-24.7,37.8-48.6s-24.7-40.8-48.6-37.8s-40.8,24.7-37.8,48.6
		S-860.3-402.8-836.4-405.8z"/>
	<path class="st23" d="M-928.7-421.9c22.5-2.7,38.6-23.1,36-45.6c-2.7-22.6-23.1-38.6-45.6-36c-22.5,2.6-38.6,23.1-36,45.6
		C-971.7-435.3-951.3-419.2-928.7-421.9z"/>
	<path class="st23" d="M-335.9-344.7c26.9-4.2,45.3-29.4,41.1-56.3c-4.2-26.9-29.4-45.3-56.3-41.1c-26.9,4.2-45.3,29.4-41.1,56.3
		C-388-358.9-362.9-340.5-335.9-344.7L-335.9-344.7z"/>
	<path class="st4" d="M-536-349.9c5.1,0,9.3-8.1,9.4-13.1l-1.6-81.7c0-7.2-7.5-16.4-12.7-16.4l-65.3-8.9c-5.1,0-9.4,5.8-9.4,13.2
		l2.1,73.5c0,7.2,2.2,23.3,11.9,28.6L-536-349.9L-536-349.9z"/>
	<path d="M-539.4-354.6c4.7,0,8.6-7.3,8.7-11.9l-0.9-74.8c0-6.6-6.7-15-11.5-15l-59.7-8.5c-4.7,0-8.6,5.3-8.7,12l1.5,67.3
		c0,6.6,1.8,21.3,10.7,26.2L-539.4-354.6L-539.4-354.6z"/>
	<path class="st4" d="M-624.6-359.1c5.1,0,8.4-5.5,8.5-10.5L-622-462c0-7.2-10.1-11.7-15.3-11.7L-695-478c-5.1,0-9.1,6.7-9.1,14.1
		c0,0,5,61.4,8.9,75.1c3.9,13.8,6.1,18.7,16.1,24.3L-624.6-359.1L-624.6-359.1z"/>
	<path d="M-628.2-365c4.6,0,7.6-5,7.6-9.5l-5.8-83.3c0-6.5-9.1-10.5-13.9-10.5l-52.1-3.5c-4.6,0-8.2,6.1-8.1,12.8
		c0,0,4.9,55.3,8.4,67.7c3.6,12.4,5.6,16.9,14.6,21.8L-628.2-365L-628.2-365z"/>
	<path class="st24" d="M-597-359.8c-2.6-17.5-7.9-79.1-4.1-103.2"/>
	<path class="st24" d="M-589.8-359.7c-2.6-17.5-7-78.9-3.2-102.9"/>
	<path class="st25" d="M-582.4-359c-2.6-17.5-7.4-78.7-3.6-102.7"/>
	<path class="st25" d="M-574.3-358.5c-2.6-17.5-7-78.1-3.2-102.2"/>
	<path class="st26" d="M-565.5-357.8c-2.6-17.5-7-77.7-3.2-101.7"/>
	<path class="st27" d="M-557.6-357.2c-2.6-17.5-7.5-76.7-3.7-100.7"/>
	<path class="st28" d="M-550-356.3c-2.6-17.5-7.4-76.6-3.6-100.6"/>
	<path class="st27" d="M-542.4-356.1c-2.6-17.5-7.1-75.7-3.3-99.7"/>
	<path class="st4" d="M-128.9-264.1c48.8-11.3,94.2-28.1,129.1-39.6S27.3-311,33-329.4c-477.5,35.6-771.9-27.4-1016.4-77.5
		c-88.6,42.6,5.6,48.4,190.1,79.4S-198.5-248-128.9-264.1L-128.9-264.1z"/>
	<path class="st25" d="M-681.4-371.9c-3.1-17.5-10.6-74.6-7.5-98.7"/>
	<path class="st24" d="M-674.3-370.1c-3.1-17.5-9.9-75.8-6.7-99.9"/>
	<path class="st24" d="M-666.6-369.4c-3.1-17.5-10.2-76-7.1-100.1"/>
	<path class="st29" d="M-658.8-368.7c-3.1-17.5-9.7-75.9-6.6-100.1"/>
	<path class="st29" d="M-650.9-367.5c-3.1-17.5-8.8-76.6-5.7-100.8"/>
	<path class="st29" d="M-642.2-366.8c-3.1-17.5-9.7-76.4-6.5-100.6"/>
	<path class="st24" d="M-634.5-366.1c-3.1-17.5-9.5-76.3-6.4-100.4"/>
	<path class="st25" d="M-626.9-366.1c-3.1-17.5-9.2-75.4-6.1-99.6"/>
	<path d="M207.1-649.7c0,0,3.5-1.7,7.6-3.2c5.1-73.4,24.1-299.1,24.1-299.1s22.8,26,48.1,173c5.8-0.1,4.7-0.6,4.7-0.6
		s-27.1-145.1-46.5-191c-5.5-13.1-10.9-16-17.2-15.2C221.7-907.8,207.1-649.7,207.1-649.7L207.1-649.7z"/>
	<path class="st30" d="M699.3-748.3c0.5-28.8,1.4-37.9,1.8-46.1l-7.9,3.3c-2.8,0.5-4.7,3.1-4.2,5.9l5.6,32.1
		C695-750.3,696.5-747.8,699.3-748.3L699.3-748.3z"/>
	<g>
		<path d="M666.9-625c1.4,1.4,4,0.4,6.6-2.2l14.8-12.7c2.7-2.6,4.3-3.5,14.1-16.5c3-4-0.1-24.7-0.1-24.7c-1.4-1.4-2.9-11.9-5.6-9.2
			l-1.5,6.3c-8,10.8-7.9,12.5-32.9,28.8L666.9-625L666.9-625z"/>
	</g>
	<path class="st6" d="M105.8-377.2c-36.2-4.1-73.1,58.7-82.4,140.4C14.1-155.2,35.9-85.6,72.1-81.5s73.1-58.7,82.4-140.4
		C163.8-303.6,142-373.1,105.8-377.2L105.8-377.2z M149.3-222.5c-0.6,5.1-1.4,10.6-2.1,15.8l-37-4.2c0.9-4,1.8-8.4,2.3-12.8
		s0.7-8.9,0.7-13l37.2,4.2C150.1-229.5,149.7-226.2,149.3-222.5L149.3-222.5z M144.7-194c-3.7,17.8-9,34-15.1,48.2l-16.2-51.8
		L144.7-194L144.7-194z M119.3-249.8l28.7-48.5c2.6,15.9,3.8,33.2,3.1,52.1L119.3-249.8L119.3-249.8z M145.8-309.3L112.2-252
		c-1.1-7.6-3.3-14.5-6.1-19.3l33.8-57.2C142-322.8,144.1-316.2,145.8-309.3z M62.1-96.9c-7.4-4.6-14-12-19.3-22.3l27.1-46.1
		L62.1-96.9z M67.1-345.1c8.1-9.9,16.6-16.7,25.5-19.4L84.2-291L67.1-345.1L67.1-345.1z M79-227.9c1.3-11.8,6.9-21.2,12.1-20.6
		c5.2,0.6,8.5,11,7.2,22.8s-6.9,21.2-12.1,20.6C80.9-205.7,77.6-215.8,79-227.9L79-227.9z M115.7-361.9c7.9,4.6,14.8,13.2,20.5,24.7
		L107.3-288L115.7-361.9L115.7-361.9z M93-162.6l16,51c-7.4,8.8-15.5,14.6-23.8,17.4L93-162.6L93-162.6z M110-364.1l-9.8,86.4
		c-1.7-1.3-3.5-2.3-5.5-2.5s-4,0.3-5.9,1.2l9.8-86.4c1.8-0.2,3.8-0.3,5.8-0.1S108.1-364.7,110-364.1L110-364.1z M61.6-337.6l20,63.7
		c-3.8,4-7.5,10.3-10.2,17.5l-19.8-63.7C54.7-326.4,58-332.4,61.6-337.6z M27.1-220.4c0.4-5.2,0.9-10.7,1.5-15.8
		c0.4-3.7,1-7,1.3-10.3l37.2,4.2c-1,4-1.8,8.4-2.3,12.8s-0.7,8.9-0.7,13l-37-4.2C27.1-220.8,27.1-220.4,27.1-220.4z M57.8-203.9
		l-27.3,46.8c-2.8-14.8-4.1-31.8-3.8-50.4L57.8-203.9L57.8-203.9z M32.1-259.7c3.6-18.6,8.7-35.5,14.8-50.1l16.9,53.7L32.1-259.7
		L32.1-259.7z M32.7-146.4l32.4-55.2c1.1,7.6,3.3,14.5,6.1,19.3L39-127.4C36.7-133.3,34.6-139.9,32.7-146.4z M67.6-94.8l9.2-80.9
		c1.7,1.3,3.5,2.3,5.5,2.5s4-0.3,5.9-1.2L79-93.5c-1.7,0.2-3.7,0.3-5.6,0.1C71.5-93.6,69.7-94.1,67.6-94.8L67.6-94.8z M114.7-118.8
		l-19-60.6c3.8-4,7.5-10.3,10.2-17.5l19,61C121.7-129.9,118.2-124,114.7-118.8z"/>
	<path class="st6" d="M613.2-616.4c-17.2-1.3-34.8,47.9-39.4,109.7c-4.6,61.9,5.6,113,22.8,114.3s34.8-47.9,39.4-109.7
		C640.6-563.9,630.4-615.1,613.2-616.4z M633.5-502.3c-0.3,3.9-0.7,8.1-1,12l-17.6-1.3c0.5-3,0.9-6.4,1.1-9.7
		c0.2-3.3,0.3-6.7,0.3-9.8l17.6,1.3C633.9-507.6,633.8-505,633.5-502.3L633.5-502.3z M631.3-480.6c-1.8,13.6-4.3,26-7.2,37
		l-7.6-38.1L631.3-480.6z M619.4-521.2l13.7-37.9c1.2,11.9,1.7,24.8,1.4,39L619.4-521.2L619.4-521.2z M632.1-567.4L616-522.6
		c-0.5-5.6-1.5-10.8-2.8-14.2l16.1-44.8C630.3-577.3,631.3-572.5,632.1-567.4z M591.9-403.4c-3.5-3.1-6.6-8.3-9.1-15.8l12.9-36
		L591.9-403.4z M594.8-590.3c3.8-7.8,7.9-13.4,12.1-15.9l-4.1,55.7L594.8-590.3L594.8-590.3z M600.2-502.8
		c0.7-8.9,3.3-16.3,5.8-16.1c2.5,0.2,4,7.9,3.3,16.8s-3.3,16.3-5.8,16.1C601.1-486.2,599.5-493.6,600.2-502.8z M617.9-605.4
		c3.7,3.1,7,9.2,9.7,17.5l-13.8,38.5L617.9-605.4z M606.7-454.4l7.5,37.5c-3.6,7-7.4,11.8-11.3,14.3
		C602.9-402.5,606.7-454.4,606.7-454.4z M615.2-606.7l-4.8,65.5c-0.8-0.9-1.7-1.5-2.6-1.6c-0.9-0.1-1.9,0.4-2.8,1.2l4.8-65.5
		c0.9-0.2,1.8-0.4,2.8-0.4C613.5-607.4,614.3-607.1,615.2-606.7z M592.2-584.3l9.4,46.9c-1.8,3.2-3.6,8.1-4.9,13.6l-9.3-46.9
		C588.9-575.6,590.5-580.2,592.2-584.3L592.2-584.3z M575.6-494.5c0.2-3.9,0.4-8.1,0.7-12c0.2-2.8,0.5-5.3,0.7-7.8l17.6,1.3
		c-0.5,3-0.9,6.4-1.1,9.7c-0.2,3.3-0.3,6.7-0.3,9.8l-17.6-1.3L575.6-494.5L575.6-494.5z M590.1-483.6L577-447
		c-1.3-11-1.9-23.7-1.7-37.7L590.1-483.6L590.1-483.6z M578-524.3c1.7-14.2,4.2-27.1,7.1-38.4l7.9,39.5L578-524.3L578-524.3z
		 M578.1-439.1l15.5-43.1c0.5,5.6,1.5,10.8,2.8,14.2L581-425.2C579.9-429.5,579-434.3,578.1-439.1z M594.5-402l4.5-61.3
		c0.8,0.9,1.7,1.5,2.6,1.6c0.9,0.1,1.9-0.4,2.8-1.2l-4.5,61.3c-0.8,0.2-1.7,0.4-2.7,0.4S595.5-401.7,594.5-402L594.5-402z
		 M616.9-422.5l-8.9-44.7c1.8-3.2,3.6-8.1,4.9-13.6l8.9,44.9C620.3-431.2,618.6-426.6,616.9-422.5L616.9-422.5z"/>
	<path class="st31" d="M-591.4-492.7c22.7-4.4,38.5-22,35.1-39.2c-3.4-17.2-24.5-27.5-47.2-23.1s-38.5,22-35.1,39.2
		C-635.2-498.6-614.2-488.3-591.4-492.7z"/>
	<path d="M-591-494.2c21.9-4.7,36.9-21.9,33.3-38.5c-3.5-16.6-24.2-26.2-46.1-21.6c-21.9,4.7-36.9,21.9-33.3,38.5
		C-633.6-499.1-612.9-489.5-591-494.2z"/>
	<path class="st4" d="M-593-499.6c18.1-3.8,30.5-18,27.6-31.7c-2.9-13.7-19.9-21.7-38.1-17.9c-18.1,3.8-30.5,18-27.6,31.7
		C-628.2-503.8-611.2-495.8-593-499.6L-593-499.6z"/>
	<path class="st32" d="M-600.1-527.8l15.2-21.4c-15-2.9-31.2,0.4-41.7,13.8L-600.1-527.8L-600.1-527.8z"/>
	<path class="st32" d="M-600-528l-18.6,25.7c13.5,7.1,39.2,5.6,51.2-15.1C-567.4-517.4-600-528-600-528z"/>
</g>
</svg>
