<?xml version="1.0" encoding="utf-8" ?>	<!-- Generator: Assembly 1.8 - http://assemblyapp.co -->	<svg version="1.1" xmlns="http://www.w3.org/2000/svg" xmlns:xlink="http://www.w3.org/1999/xlink" width="2048.00" height="2048.00" viewBox="0 0 2048.0 2048.0">		<g id="document" transform="matrix(1,0,0,1,1024.0,1024.0)">			<path d="M958.186,258.636 C1042.1,198.587 1010.6,108.075 898.91,92.5092 C795.869,78.1491 198.718,40.0307 198.718,40.0307 C165.592,-6.25597 -97.5304,123.209 -182.912,184.313 L-687.848,360.294 C-771.757,420.344 -973.525,467.071 -846.991,515.425 C-720.458,563.778 -40.3547,668.538 157.1,655.867 C354.555,643.196 546.459,527.01 631.84,465.906 L958.186,258.636 Z " fill="#1b1b1b" fill-opacity="1.00" />			<path d="M-348.625,480.798 C-293.776,486.948 23.1556,527.413 74.2553,486.912 C110.956,457.824 8.46527,372.695 8.46527,372.695 C9.72702,361.442 -33.4963,347.2 -89.307,340.942 L-720.524,281.345 C-775.372,275.195 -843.948,268.188 -845.232,279.638 C-845.232,279.638 -854.037,323.591 -842,355.495 C-829.185,389.461 -748.239,414.084 -692.429,420.342 L-348.625,480.798 Z " fill="#000000" fill-opacity="1.00" />			<path d="M567.701,-160.765 C583.653,-152.505 697.204,-192.876 705.599,-208.403 L790.532,-274.131 C793.095,-292.932 784.765,-306.567 767.584,-309.275 L301.881,-341.845 C285.93,-350.105 235.179,-301.099 226.774,-284.867 L416.188,-221.586 C407.928,-205.634 417.75,-181.819 433.982,-173.415 L567.701,-160.765 Z " fill="#616161" fill-opacity="1.00" />			<path d="M478.916,-193.388 C491.34,-186.851 580.284,-217.817 586.924,-229.907 L653.634,-280.836 C660.17,-293.259 648.522,-301.766 635.88,-308.417 L348.891,-331.304 C336.467,-337.841 320.536,-335.267 313.884,-322.626 L360.826,-241.696 C354.289,-229.272 361.843,-210.611 374.484,-203.96 L478.916,-193.388 Z " fill="#1d1d1d" fill-opacity="1.00" />			<path d="M493.427,-123.313 C505.309,-122.179 500.836,-235.717 502.158,-247.371 L526.041,-294.319 C527.175,-306.202 510.37,-306.481 498.279,-307.635 L342.763,-318.151 C330.881,-319.285 350.489,-309.652 349.336,-297.561 L336.231,-160.185 C335.097,-148.303 343.752,-137.591 355.843,-136.437 L493.427,-123.313 Z " fill="#a63131" fill-opacity="0.70" />			<path d="M409.91,-93.9663 C409.91,-93.9663 344.151,-413.189 325.174,-420.238 C317.943,-382.138 299.866,-75.5434 299.866,-75.5434 L409.91,-93.9663 Z " fill="#ccdbe0" fill-opacity="1.00" />			<path d="M440.305,108.776 L-54.4582,0.200804 L269.241,295.985 L440.305,108.776 Z " fill="#000000" fill-opacity="1.00" />			<path d="M-869.423,233.379 C-646.95,295.472 14.6158,261.732 14.6158,261.732 L-14.7028,82.7415 L-875.277,13.3567 C-875.277,13.3567 -926.648,43.3914 -869.423,233.379 Z " fill="#000000" fill-opacity="1.00" />			<path d="M-449.542,-237.814 C-443.802,-259.047 -451.158,-278.727 -458.879,-281.369 C-471.886,-285.819 -497.546,-294.502 -503.29,-292.419 C-512.961,-288.912 -522.916,-278.438 -522.914,-273.268 C-522.899,-234.795 -531.077,-238.097 -501.065,-217.574 C-488.672,-209.099 -454.246,-179.242 -454.246,-179.242 L-449.542,-237.814 Z " fill="#646464" fill-opacity="1.00" />			<path d="M-477.559,-226.556 C-473.342,-242.16 -478.848,-253.251 -494.452,-257.469 L-521.526,-268.792 L-520.776,-242.581 C-519.696,-231.165 -516.777,-230.3 -502.528,-220.784 L-470.649,-192.952 L-477.559,-226.556 Z " fill="#4d4d4d" fill-opacity="1.00" />			<defs>				<filter id="JleYX2lD" x="-11.56%" y="0.00%" width="127.99%" height="110.18%" filterUnits="objectBoundingBox">					<feOffset dx="-0.77" dy="2.85" in="SourceAlpha" result="shadowOffsetOuter1" />					<feGaussianBlur stdDeviation="0.95" in="shadowOffsetOuter1" result="shadowBlurOuter1" />					<feFlood flood-color="#000000" flood-opacity="0.21" />					<feComposite in2="shadowBlurOuter1" operator="in" />					<feMerge>						<feMergeNode />						<feMergeNode in="SourceGraphic" />					</feMerge>				</filter>			</defs>			<path d="M-465.69,-254.748 C-459.33,-255.738 -455.737,-258.672 -453.038,-263.885 C-452.273,-265.363 -454.301,-274.616 -456.72,-276.408 C-459.139,-278.2 -465.553,-275.185 -467.167,-273.615 C-468.781,-272.045 -470.279,-272.656 -471.987,-265.499 L-475.966,-230.259 C-475.966,-230.259 -472.05,-253.758 -465.69,-254.748 Z " fill="#4d4d4d" fill-opacity="1.00" filter="url(#JleYX2lD)" />			<path d="M319.19,-429.844 C185.815,-452.713 -44.5478,-467.044 -265.692,-468.024 C-416.168,-329.808 -520.416,-165.008 -520.416,-165.008 L299.432,-92.8947 C299.432,-92.8947 308.016,-278.487 319.19,-429.844 Z " fill="#909090" fill-opacity="1.00" />			<path d="M305.025,-404.904 C193.952,-421.754 -77.7883,-452.89 -262.533,-449.528 C-377.501,-334.957 -410.208,-295.413 -486.336,-192.664 C-332.077,-178.216 153.704,-130.625 277.868,-119.284 C273.078,-195.202 289.393,-331.938 305.025,-404.904 Z " fill="#ccdbe0" fill-opacity="1.00" />			<defs>				<filter id="Ed6i41dz" x="0.00%" y="-14.80%" width="111.63%" height="154.28%" filterUnits="objectBoundingBox">					<feOffset dx="83.33" dy="13.89" in="SourceAlpha" result="shadowOffsetOuter1" />					<feGaussianBlur stdDeviation="27.78" in="shadowOffsetOuter1" result="shadowBlurOuter1" />					<feFlood flood-color="#000000" flood-opacity="0.33" />					<feComposite in2="shadowBlurOuter1" operator="in" />					<feMerge>						<feMergeNode />						<feMergeNode in="SourceGraphic" />					</feMerge>				</filter>			</defs>			<path d="M-520.026,-168.214 C-805.168,-58.083 -892.744,-6.54535 -894.405,59.7624 C-893.366,56.264 -886.397,42.0657 -876.934,42.2055 C-791.841,43.4628 -383.695,100.441 -100.543,112.165 C165.326,-35.4409 299.407,-93.7564 299.407,-93.7564 C299.407,-93.7564 -256.299,-179.837 -520.026,-168.214 Z " fill="#8a8a8a" fill-opacity="1.00" filter="url(#Ed6i41dz)" />			<path d="M-40.1003,132.045 M-40.1003,132.045 C-75.84,152.833 -852.489,75.0794 -893.246,55.0078 " fill="none" stroke-width="2.72" stroke="#454545" stroke-linecap="square" stroke-linejoin="miter" />			<path d="M-41.9788,145.194 M-41.9788,145.194 C-77.7184,165.983 -854.367,88.2287 -895.125,68.1571 " fill="none" stroke-width="2.72" stroke="#454545" stroke-linecap="square" stroke-linejoin="miter" />			<path d="M-42.918,158.813 M-42.918,158.813 C-78.6577,179.602 -855.307,101.848 -896.064,81.7759 " fill="none" stroke-width="2.72" stroke="#454545" stroke-linecap="square" stroke-linejoin="miter" />			<path d="M-41.9788,169.614 M-41.9788,169.614 C-77.7184,190.403 -854.367,112.649 -895.125,92.5771 " fill="none" stroke-width="2.72" stroke="#454545" stroke-linecap="square" stroke-linejoin="miter" />			<path d="M-43.8572,179.946 M-43.8572,179.946 C-79.5969,200.734 -856.246,122.98 -897.003,102.909 " fill="none" stroke-width="2.72" stroke="#454545" stroke-linecap="square" stroke-linejoin="miter" />			<path d="M-42.918,192.625 M-42.918,192.625 C-78.6577,213.414 -855.307,135.66 -896.064,115.588 " fill="none" stroke-width="2.72" stroke="#454545" stroke-linecap="square" stroke-linejoin="miter" />			<path d="M-40.1003,206.714 M-40.1003,206.714 C-75.84,227.502 -852.489,149.748 -893.246,129.677 " fill="none" stroke-width="2.72" stroke="#454545" stroke-linecap="square" stroke-linejoin="miter" />			<path d="M-36.4314,220.196 M-36.4314,220.196 C-72.1711,240.985 -848.82,163.231 -889.578,143.159 " fill="none" stroke-width="2.72" stroke="#454545" stroke-linecap="square" stroke-linejoin="miter" />			<path d="M9.52883,465.934 C21.8915,509.557 60.9079,515.745 96.5714,514.824 L162.108,513.132 L160.416,447.595 C159.495,411.932 129.931,383.855 94.2671,384.776 L0.374607,354.63 C0.374607,354.63 -2.83385,422.311 9.52883,465.934 Z " fill="#4d4d4d" fill-opacity="1.00" />			<path d="M706.387,-173.523 C688.633,-170.414 676.674,-153.38 679.782,-135.626 L696.692,-39.0369 C699.8,-21.2827 716.834,-9.32405 734.588,-12.4322 C752.342,-15.5404 764.301,-32.5747 761.193,-50.3288 L744.283,-146.918 C741.175,-164.672 724.141,-176.631 706.387,-173.523 Z " fill="#000000" fill-opacity="1.00" />			<path d="M592.943,149.042 C605.305,192.665 619.434,193.825 653.95,194.973 C688.466,196.122 691.972,191.802 691.972,191.802 L694.422,73.8988 C693.501,38.2354 679.913,-24.7518 644.249,-23.831 L600.061,11.703 C600.061,11.703 580.58,105.419 592.943,149.042 Z " fill="#4d4d4d" fill-opacity="1.00" />			<path d="M264.453,330.987 C277.107,223.58 245.28,131.551 193.365,125.434 C141.45,119.318 89.1059,201.43 76.4516,308.837 C63.7974,416.245 95.6245,508.274 147.54,514.39 C199.455,520.506 251.798,438.394 264.453,330.987 Z " fill="#1e1e1e" fill-opacity="1.00" />			<path d="M738.467,44.6435 C741.965,-37.7756 724.415,-105.455 699.267,-106.522 C674.12,-107.59 650.897,-41.6413 647.399,40.7778 C643.9,123.197 661.45,190.876 686.598,191.944 C711.746,193.011 734.968,127.063 738.467,44.6435 Z " fill="#1e1e1e" fill-opacity="1.00" />			<path d="M241.58,333.064 C247.557,254.402 224.361,188.503 189.769,185.874 C155.178,183.246 122.29,244.883 116.313,323.545 C110.335,402.207 133.532,468.106 168.123,470.734 C202.715,473.363 235.602,411.726 241.58,333.064 Z " fill="#4d4d4d" fill-opacity="0.67" />			<path d="M725.18,54.7067 C729.661,-4.26533 719.904,-53.0891 703.386,-54.3443 C686.869,-55.5994 669.846,-8.81066 665.365,50.1613 C660.883,109.133 670.641,157.957 687.158,159.212 C703.676,160.467 720.699,113.679 725.18,54.7067 Z " fill="#4d4d4d" fill-opacity="0.67" />			<path d="M-52.1922,341.83 C-52.1922,341.83 3.87766,358.645 99.152,334.749 C145.946,-5.40669 310.47,61.0629 274.727,257.899 C275.018,257.719 275.31,257.539 275.601,257.359 C420.514,167.684 555.876,121.162 654.863,60.1761 C699.142,-186.112 768.771,-152.781 756.649,-26.3913 C761.422,-32.5025 765.937,-38.8225 770.181,-45.3745 C791.442,-78.1978 793.036,-256.12 793.036,-256.12 C793.036,-256.12 153.278,8.96431 -98.6155,112.11 C-0.174595,135.268 -52.1922,341.83 -52.1922,341.83 Z " fill="#616161" fill-opacity="1.00" />			<path d="M-25.8743,418.555 C2.96821,417.196 30.5918,417.564 64.2562,405.868 C102.165,363.028 100.056,316.706 105.715,298.356 C-371.774,333.963 -653.927,275.357 -898.387,225.254 C-897.661,262.192 -900.841,298.676 -893.019,303.315 C-885.674,307.67 -856.441,315.007 -734.725,339.894 C-536.525,380.42 -115.04,422.757 -25.8743,418.555 Z " fill="#454545" fill-opacity="1.00" />			<path d="M475.531,-163.009 C480.275,-170.683 472.048,-255.995 486.48,-295.418 C488.995,-302.288 493.607,-307.784 517.523,-305.209 C477.756,-312.767 475.88,-305.332 472.615,-293.7 C466.175,-270.762 470.146,-159.634 470.146,-159.634 C470.146,-159.634 474.29,-125.92 475.531,-163.009 Z " fill="#000000" fill-opacity="1.00" />			<path d="M262.678,5.61321 C262.678,5.61321 103.302,67.6778 -101.223,112.025 C19.9287,29.0323 506.774,-199.926 771.389,-301.506 C798.299,-311.836 792.881,-250.924 792.881,-250.924 L262.678,5.61321 Z " fill="#bebebe" fill-opacity="1.00" />			<path d="M297.61,-93.2931 L627.068,-242.422 L617.045,-253.381 L591.18,-252.389 L304.903,-108.066 L297.61,-93.2931 Z " fill="#000000" fill-opacity="1.00" />			<path d="M454.977,-153.516 C462.627,-158.413 463.416,-174.184 463.416,-174.184 C463.416,-174.184 467.953,-205.238 459.819,-215.386 C451.017,-226.366 389.728,-225.931 368.924,-221.153 C361.748,-219.505 344.221,-195.563 334.957,-194.974 C299.446,-192.718 308.307,-198.213 304.903,-191.966 C303.323,-189.066 303.458,-178.605 302.334,-161.5 C301.022,-141.528 300.203,-105.288 299.341,-94.3084 C298.948,-89.3127 316.094,-113.651 330.557,-120.276 C362.123,-134.735 362.234,-132.774 380.183,-137.855 C418.02,-148.566 447.327,-148.619 454.977,-153.516 Z " fill="#858585" fill-opacity="1.00" />			<path d="M421.74,-195.527 C432.986,-196.508 440.308,-197.64 442.913,-198.775 C445.517,-199.91 448.608,-200.64 452.437,-206.108 C452.437,-206.108 458.698,-212.527 455.776,-215.645 C452.855,-218.763 442.122,-219.237 426.944,-220.32 C411.765,-221.402 371.135,-218.049 371.135,-218.049 L348.137,-193.071 L421.74,-195.527 Z " fill="#bebebe" fill-opacity="0.94" />			<path d="M339.35,-133.716 C338.465,-151.675 328.953,-178.661 321.812,-189.735 C316.731,-161.876 307.43,-113.572 307.43,-113.572 C307.43,-113.572 322.932,-127.498 339.35,-133.716 Z " fill="#bebebe" fill-opacity="0.69" />			<defs>				<filter id="b6lCBqUD" x="-11.38%" y="0.00%" width="134.14%" height="138.97%" filterUnits="objectBoundingBox">					<feOffset dx="0.00" dy="5.93" in="SourceAlpha" result="shadowOffsetOuter1" />					<feGaussianBlur stdDeviation="2.14" in="shadowOffsetOuter1" result="shadowBlurOuter1" />					<feFlood flood-color="#000000" flood-opacity="0.34" />					<feComposite in2="shadowBlurOuter1" operator="in" />					<feMerge>						<feMergeNode />						<feMergeNode in="SourceGraphic" />					</feMerge>				</filter>			</defs>			<path d="M532.778,-123.633 L568.165,-135.122 C568.165,-135.122 567.37,-147.852 562.456,-149.592 C557.541,-151.333 534.225,-143.335 531.459,-138.862 C528.693,-134.389 532.778,-123.633 532.778,-123.633 Z " fill="#000000" fill-opacity="1.00" filter="url(#b6lCBqUD)" />			<path d="M276.654,162.752 C278.336,176.351 278.588,173.799 278.929,182.01 C380.014,133.561 669.209,-6.3646 669.209,-6.3646 L675.566,-29.4121 C675.566,-29.4121 375.898,111.949 276.654,162.752 Z " fill="#000000" fill-opacity="1.00" />			<path d="M277.876,168.001 L290.462,165.054 L662.005,-14.2112 L674.006,-24.5438 L277.876,168.001 Z " fill="#ccdbe0" fill-opacity="1.00" />			<path d="M534.881,-204.922 M534.881,-204.922 C596.292,-156.453 575.216,-31.4652 542.995,116.192 " fill="none" stroke-width="1.51" stroke="#000000" stroke-linecap="square" stroke-linejoin="miter" />			<path d="M300.228,-93.9465 M300.228,-93.9465 C350.274,-56.1742 316.496,188.48 300.988,243.881 " fill="none" stroke-width="1.51" stroke="#000000" stroke-linecap="square" stroke-linejoin="miter" />			<path d="M644.002,91.3895 C654.291,66.7744 656.21,52.7987 656.21,52.7987 L276.018,251.49 L270.485,296.841 C270.485,296.841 547.67,152.598 644.002,91.3895 Z " fill="#000000" fill-opacity="1.00" />			<defs>				<filter id="j7piL9A9" x="0.00%" y="-23.05%" width="127.47%" height="156.59%" filterUnits="objectBoundingBox">					<feOffset dx="13.61" dy="-3.71" in="SourceAlpha" result="shadowOffsetOuter1" />					<feGaussianBlur stdDeviation="4.95" in="shadowOffsetOuter1" result="shadowBlurOuter1" />					<feFlood flood-color="#000000" flood-opacity="0.93" />					<feComposite in2="shadowBlurOuter1" operator="in" />					<feMerge>						<feMergeNode />						<feMergeNode in="SourceGraphic" />					</feMerge>				</filter>			</defs>			<path d="M-875.08,300.027 L-789.579,315.154 L-790.893,269.396 L-875.157,256.124 L-875.08,300.027 Z " fill="#fcc329" fill-opacity="0.93" filter="url(#j7piL9A9)" />			<defs>				<filter id="g29u6ErZ" x="-4.99%" y="0.00%" width="112.97%" height="152.31%" filterUnits="objectBoundingBox">					<feOffset dx="-10.49" dy="53.77" in="SourceAlpha" result="shadowOffsetOuter1" />					<feGaussianBlur stdDeviation="20.98" in="shadowOffsetOuter1" result="shadowBlurOuter1" />					<feFlood flood-color="#000000" flood-opacity="0.33" />					<feComposite in2="shadowBlurOuter1" operator="in" />					<feMerge>						<feMergeNode />						<feMergeNode in="SourceGraphic" />					</feMerge>				</filter>			</defs>			<path d="M-22.873,355.456 C7.4395,355.567 69.8549,325.399 102.784,307.823 C106.799,279.881 112.843,257.676 118.502,239.326 C-358.987,274.933 -684,222.548 -928.46,172.445 C-933.74,209.383 -937.172,230.593 -921.717,241.472 C-903.453,254.328 -853.439,259.992 -731.724,284.879 C-533.523,325.405 -112.137,355.13 -22.873,355.456 Z " fill="#000000" fill-opacity="1.00" filter="url(#g29u6ErZ)" />			<path d="M-40.2047,289.612 C8.63945,278.332 54.001,261.562 88.9466,250.035 C123.892,238.508 116.053,242.686 121.712,224.336 C-355.777,259.943 -650.189,196.909 -894.649,146.806 C-983.223,189.416 -889.092,195.169 -704.589,226.166 C-520.085,257.163 -109.809,305.688 -40.2047,289.612 Z " fill="#ccdbe0" fill-opacity="1.00" />			<path d="M-216.116,339.791 L-117.869,344.809 L-115.568,299.487 L-215.658,293.732 L-216.116,339.791 Z " fill="#ff9702" fill-opacity="0.80" />			<path d="M-887.938,245.467 L-805.903,261.539 L-799.55,220.27 L-883.427,204.198 L-887.938,245.467 Z " fill="#ff9702" fill-opacity="0.85" />			<path d="M-707.475,295.037 C-699.044,304.093 -393.178,348.653 -386.344,343.599 C-379.51,338.545 -373.63,281.95 -385.066,270.269 C-396.503,258.588 -694.55,224.093 -702.31,228.187 C-710.07,232.281 -715.907,285.981 -707.475,295.037 Z " fill="#ecf1f2" fill-opacity="1.00" />			<defs>				<filter id="1tSfX9UY" x="0.00%" y="-38.22%" width="116.99%" height="177.04%" filterUnits="objectBoundingBox">					<feOffset dx="11.44" dy="-9.59" in="SourceAlpha" result="shadowOffsetOuter1" />					<feGaussianBlur stdDeviation="4.95" in="shadowOffsetOuter1" result="shadowBlurOuter1" />					<feFlood flood-color="#000000" flood-opacity="0.77" />					<feComposite in2="shadowBlurOuter1" operator="in" />					<feMerge>						<feMergeNode />						<feMergeNode in="SourceGraphic" />					</feMerge>				</filter>			</defs>			<path d="M-190.929,402.093 L-67.0761,407.323 L-65.2974,362.183 L-188.532,356.334 L-190.929,402.093 Z " fill="#fcc329" fill-opacity="0.72" filter="url(#1tSfX9UY)" />			<path d="M-115.98,219.576 C-90.5069,217.199 -71.8097,194.654 -74.1863,169.181 C-76.5628,143.708 -99.1077,125.011 -124.581,127.387 C-150.054,129.764 -168.751,152.309 -166.375,177.782 C-163.998,203.255 -141.453,221.952 -115.98,219.576 Z " fill="#e8e6cb" fill-opacity="1.00" />			<path d="M-745.433,150.245 C-721.545,147.268 -704.617,125.52 -707.594,101.632 C-710.571,77.744 -732.319,60.8161 -756.207,63.793 C-780.095,66.7699 -797.023,88.5177 -794.046,112.406 C-791.069,136.294 -769.321,153.222 -745.433,150.245 Z " fill="#e8e6cb" fill-opacity="1.00" />			<path d="M-837.731,134.126 C-815.181,131.463 -799.082,111.053 -801.745,88.5026 C-804.408,65.9525 -824.819,49.8536 -847.369,52.5168 C-869.919,55.18 -886.018,75.5906 -883.355,98.1406 C-880.692,120.691 -860.281,136.79 -837.731,134.126 Z " fill="#e8e6cb" fill-opacity="1.00" />			<path d="M-244.954,211.255 C-218.026,207.065 -199.619,181.874 -203.809,154.946 C-208,128.018 -233.19,109.611 -260.118,113.802 C-287.046,117.992 -305.453,143.183 -301.263,170.111 C-297.073,197.039 -271.882,215.446 -244.954,211.255 Z " fill="#e8e6cb" fill-opacity="1.00" />			<path d="M-445.033,206.088 C-439.885,206.088 -435.729,198 -435.639,192.993 L-437.201,111.275 C-437.201,104.029 -444.656,94.9188 -449.895,94.9188 L-515.16,86.0548 C-520.309,86.0548 -524.555,91.9029 -524.555,99.2766 L-522.434,172.763 C-522.434,180.01 -520.259,196.049 -510.565,201.328 L-445.033,206.088 Z " fill="#ccdbe0" fill-opacity="1.00" />			<path d="M-448.381,201.421 C-443.67,201.452 -439.818,194.078 -439.705,189.496 L-440.633,114.713 C-440.589,108.082 -447.354,99.7011 -452.148,99.669 L-511.813,91.1581 C-516.524,91.1265 -520.445,96.4516 -520.49,103.199 L-519,170.453 C-519.045,177.084 -517.152,191.773 -508.315,196.663 L-448.381,201.421 Z " fill="#000000" fill-opacity="1.00" />			<path d="M-533.607,196.855 C-528.458,196.855 -525.169,191.365 -525.078,186.357 L-530.968,93.9643 C-530.968,86.7178 -541.02,82.2242 -546.259,82.2242 L-604.023,77.9764 C-609.171,77.9764 -613.128,84.6901 -613.128,92.0637 C-613.128,92.0637 -608.088,153.438 -604.231,167.208 C-600.375,180.977 -598.158,185.951 -588.176,191.518 L-533.607,196.855 Z " fill="#ccdbe0" fill-opacity="1.00" />			<path d="M-537.196,191.025 C-532.554,190.996 -529.619,186.026 -529.566,181.511 L-535.403,98.2392 C-535.444,91.7054 -544.532,87.711 -549.256,87.7408 L-601.362,84.2395 C-606.005,84.2688 -609.534,90.3446 -609.492,96.9931 C-609.492,96.9931 -604.599,152.302 -601.043,164.695 C-597.487,177.089 -595.46,181.56 -586.428,186.524 L-537.196,191.025 Z " fill="#000000" fill-opacity="1.00" />			<path d="M-505.983,196.16 M-505.983,196.16 C-508.557,178.623 -513.847,117.035 -510.052,92.9974 " fill="none" stroke-width="0.76" stroke="#4d4d4d" stroke-linecap="square" stroke-linejoin="miter" />			<path d="M-498.779,196.266 M-498.779,196.266 C-501.353,178.729 -505.748,117.365 -501.952,93.3275 " fill="none" stroke-width="0.76" stroke="#4d4d4d" stroke-linecap="square" stroke-linejoin="miter" />			<path d="M-491.363,197.039 M-491.363,197.039 C-493.937,179.501 -498.779,118.361 -494.984,94.3235 " fill="none" stroke-width="0.61" stroke="#4d4d4d" stroke-linecap="square" stroke-linejoin="miter" />			<path d="M-483.304,197.469 M-483.304,197.469 C-485.877,179.932 -490.272,119.351 -486.477,95.3137 " fill="none" stroke-width="0.61" stroke="#4d4d4d" stroke-linecap="square" stroke-linejoin="miter" />			<path d="M-474.466,198.201 M-474.466,198.201 C-477.04,180.663 -481.435,120.531 -477.64,96.4932 " fill="none" stroke-width="1.36" stroke="#4d4d4d" stroke-linecap="square" stroke-linejoin="miter" />			<path d="M-466.608,198.826 M-466.608,198.826 C-469.182,181.289 -474.136,122.164 -470.341,98.1263 " fill="none" stroke-width="1.06" stroke="#4d4d4d" stroke-linecap="square" stroke-linejoin="miter" />			<path d="M-458.979,199.71 M-458.979,199.71 C-461.553,182.173 -466.396,123.16 -462.6,99.1223 " fill="none" stroke-width="0.91" stroke="#4d4d4d" stroke-linecap="square" stroke-linejoin="miter" />			<path d="M-451.368,199.911 M-451.368,199.911 C-453.942,182.374 -458.448,124.256 -454.653,100.219 " fill="none" stroke-width="1.06" stroke="#4d4d4d" stroke-linecap="square" stroke-linejoin="miter" />			<path d="M-37.8823,291.935 C10.9619,280.654 56.3234,263.884 91.269,252.357 C126.215,240.83 118.375,245.008 124.034,226.658 C-353.455,262.266 -647.867,199.231 -892.327,149.128 C-980.901,191.738 -886.77,197.491 -702.266,228.488 C-517.763,259.486 -107.486,308.011 -37.8823,291.935 Z " fill="#ccdbe0" fill-opacity="1.00" />			<path d="M-590.385,184.058 M-590.385,184.058 C-593.447,166.599 -601.033,109.469 -597.91,85.3346 " fill="none" stroke-width="0.61" stroke="#4d4d4d" stroke-linecap="square" stroke-linejoin="miter" />			<path d="M-583.297,185.932 M-583.297,185.932 C-586.359,168.473 -593.159,110.152 -590.036,86.0177 " fill="none" stroke-width="0.76" stroke="#4d4d4d" stroke-linecap="square" stroke-linejoin="miter" />			<path d="M-575.63,186.613 M-575.63,186.613 C-578.692,169.154 -585.818,110.606 -582.695,86.4713 " fill="none" stroke-width="0.76" stroke="#4d4d4d" stroke-linecap="square" stroke-linejoin="miter" />			<path d="M-567.793,187.281 M-567.793,187.281 C-570.856,169.823 -577.519,111.358 -574.396,87.2237 " fill="none" stroke-width="0.45" stroke="#4d4d4d" stroke-linecap="square" stroke-linejoin="miter" />			<path d="M-559.866,188.461 M-559.866,188.461 C-562.928,171.002 -568.652,111.827 -565.529,87.6928 " fill="none" stroke-width="0.45" stroke="#4d4d4d" stroke-linecap="square" stroke-linejoin="miter" />			<path d="M-551.182,189.215 M-551.182,189.215 C-554.245,171.756 -560.847,112.792 -557.724,88.6581 " fill="none" stroke-width="0.45" stroke="#4d4d4d" stroke-linecap="square" stroke-linejoin="miter" />			<path d="M-543.532,189.886 M-543.532,189.886 C-546.594,172.427 -553.082,113.572 -549.959,89.4377 " fill="none" stroke-width="0.76" stroke="#4d4d4d" stroke-linecap="square" stroke-linejoin="miter" />			<path d="M-535.918,189.874 M-535.918,189.874 C-538.98,172.415 -545.107,114.446 -541.984,90.3119 " fill="none" stroke-width="0.61" stroke="#4d4d4d" stroke-linecap="square" stroke-linejoin="miter" />			<path d="M298.152,-93.727 C298.152,-93.727 301.618,-95.4544 305.775,-96.893 C310.921,-170.275 329.914,-396.013 329.914,-396.013 C329.914,-396.013 352.705,-370.038 378.026,-223.029 C383.856,-223.156 382.751,-223.603 382.751,-223.603 C382.751,-223.603 355.684,-368.734 336.228,-414.638 C330.692,-427.701 325.289,-430.634 318.987,-429.797 C312.742,-351.785 298.152,-93.727 298.152,-93.727 Z " fill="#000000" fill-opacity="1.00" />			<path d="M790.29,-192.314 C790.773,-221.096 791.652,-230.168 792.062,-238.396 L784.113,-235.087 C781.338,-234.607 779.437,-231.971 779.925,-229.148 L785.476,-197.064 C785.956,-194.289 787.466,-191.826 790.29,-192.314 Z " fill="#c1281a" fill-opacity="0.55" />			<defs>				<filter id="yVn5fyUM" x="-3.95%" y="0.00%" width="114.36%" height="112.50%" filterUnits="objectBoundingBox">					<feOffset dx="0.52" dy="6.14" in="SourceAlpha" result="shadowOffsetOuter1" />					<feGaussianBlur stdDeviation="1.08" in="shadowOffsetOuter1" result="shadowBlurOuter1" />					<feFlood flood-color="#000000" flood-opacity="0.46" />					<feComposite in2="shadowBlurOuter1" operator="in" />					<feMerge>						<feMergeNode />						<feMergeNode in="SourceGraphic" />					</feMerge>				</filter>			</defs>			<path d="M757.858,-69.0152 C759.245,-67.6119 761.862,-68.6436 764.496,-71.1978 L779.332,-83.9381 C781.988,-86.5629 783.674,-87.4101 793.417,-100.46 C796.434,-104.501 793.282,-125.189 793.282,-125.189 C791.895,-126.593 790.339,-137.053 787.636,-134.383 L786.172,-128.092 C778.151,-117.333 778.291,-115.594 753.224,-99.2824 L757.858,-69.0152 Z " fill="#000000" fill-opacity="1.00" filter="url(#yVn5fyUM)" />			<defs>				<filter id="eN077Jpo" x="-3.42%" y="-5.47%" width="139.86%" height="122.14%" filterUnits="objectBoundingBox">					<feOffset dx="20.05" dy="8.48" in="SourceAlpha" result="shadowOffsetOuter1" />					<feGaussianBlur stdDeviation="12.34" in="shadowOffsetOuter1" result="shadowBlurOuter1" />					<feFlood flood-color="#000000" flood-opacity="0.37" />					<feComposite in2="shadowBlurOuter1" operator="in" />					<feMerge>						<feMergeNode />						<feMergeNode in="SourceGraphic" />					</feMerge>				</filter>			</defs>			<path d="M196.763,178.775 C160.552,174.65 123.652,237.495 114.353,319.129 C105.053,400.762 126.873,470.296 163.084,474.421 C199.295,478.546 236.194,415.701 245.494,334.068 C254.793,252.434 232.973,182.9 196.763,178.775 Z M240.274,333.473 C239.688,338.621 238.896,344.118 238.147,349.248 L201.121,345.03 C202.071,341.041 202.9,336.665 203.402,332.253 C203.905,327.84 204.081,323.39 204.053,319.29 L241.242,323.526 C241.07,326.486 240.693,329.796 240.274,333.473 Z M235.702,362.006 C232.018,379.839 226.708,395.996 220.629,410.203 L204.385,358.439 L235.702,362.006 Z M210.333,306.223 L238.991,257.711 C241.636,273.657 242.808,290.925 242.14,309.846 L210.333,306.223 Z M236.781,246.657 L203.161,303.916 C202.041,296.338 199.859,289.385 197.099,284.601 L230.883,227.361 C233.027,233.192 235.088,239.759 236.781,246.657 Z M153.095,459.129 C145.684,454.56 139.098,447.104 133.826,436.819 L160.886,390.733 L153.095,459.129 Z M158.078,210.872 C166.143,200.989 174.689,194.14 183.59,191.429 L175.212,264.973 L158.078,210.872 Z M170.007,328.076 C171.347,316.309 176.882,306.882 182.101,307.477 C187.321,308.071 190.594,318.501 189.254,330.268 C187.913,342.035 182.378,351.462 177.159,350.868 C171.939,350.273 168.624,340.211 170.007,328.076 Z M206.752,194.068 C214.651,198.692 221.601,207.306 227.237,218.751 L198.332,267.979 L206.752,194.068 Z M184.048,393.371 L200.049,444.363 C192.599,453.199 184.505,458.982 176.257,461.767 L184.048,393.371 L184.048,393.371 Z M201.047,191.928 L191.203,278.342 C189.535,277.034 187.661,276.076 185.704,275.853 C183.747,275.63 181.706,276.142 179.786,277.041 L189.629,190.627 C191.466,190.464 193.465,190.319 195.422,190.542 C197.379,190.765 199.132,191.337 201.047,191.928 Z M152.589,218.442 L172.591,282.181 C168.826,286.222 165.136,292.507 162.341,299.638 L142.502,235.917 C145.703,229.577 149.025,223.623 152.589,218.442 Z M118.097,335.572 C118.521,330.406 118.986,324.871 119.572,319.723 C119.991,316.046 120.531,312.755 120.908,309.446 L158.098,313.682 C157.147,317.671 156.319,322.047 155.816,326.459 C155.313,330.872 155.137,335.322 155.165,339.422 L118.139,335.205 L118.097,335.572 Z M148.764,352.103 L121.457,398.906 C118.687,384.063 117.31,367.144 117.61,348.554 L148.764,352.103 L148.764,352.103 Z M123.069,296.282 C126.673,277.696 131.741,260.766 137.862,246.191 L154.712,299.887 L123.069,296.282 Z M123.71,409.592 L156.1,354.428 C157.219,362.006 159.401,368.959 162.161,373.743 L129.976,428.558 C127.668,422.708 125.607,416.141 123.71,409.592 Z M158.636,461.25 L167.852,380.352 C169.52,381.659 171.394,382.618 173.351,382.841 C175.309,383.064 177.35,382.551 179.27,381.652 L170.054,462.55 C168.381,462.732 166.382,462.877 164.424,462.654 C162.467,462.431 160.715,461.859 158.636,461.25 Z M205.659,437.18 L186.627,376.531 C190.392,372.49 194.082,366.205 196.877,359.074 L215.867,420.09 C212.708,426.063 209.223,431.998 205.659,437.18 Z " fill="#4d4d4d" fill-opacity="1.00" filter="url(#eN077Jpo)" />			<defs>				<filter id="zXHUdWzo" x="-4.24%" y="-4.26%" width="149.42%" height="117.25%" filterUnits="objectBoundingBox">					<feOffset dx="11.82" dy="5.00" in="SourceAlpha" result="shadowOffsetOuter1" />					<feGaussianBlur stdDeviation="7.27" in="shadowOffsetOuter1" result="shadowBlurOuter1" />					<feFlood flood-color="#000000" flood-opacity="0.37" />					<feComposite in2="shadowBlurOuter1" operator="in" />					<feMerge>						<feMergeNode />						<feMergeNode in="SourceGraphic" />					</feMerge>				</filter>			</defs>			<path d="M704.2,-60.3859 C687.022,-61.6566 669.384,-12.5322 664.808,49.3252 C660.232,111.183 670.45,162.368 687.628,163.638 C704.806,164.909 722.445,115.785 727.02,53.9272 C731.596,-7.93023 721.378,-59.1152 704.2,-60.3859 Z M724.544,53.7441 C724.256,57.645 723.869,61.8188 723.503,65.714 L705.938,64.4147 C706.397,61.3668 706.799,58.0346 707.047,54.691 C707.294,51.3474 707.387,47.9923 707.381,44.9101 L725.023,46.2151 C724.936,48.4499 724.75,50.9577 724.544,53.7441 Z M722.318,75.432 C720.534,89.0279 717.981,101.446 715.068,112.437 L707.461,74.333 L722.318,75.432 Z M710.388,34.7665 L724.086,-3.16271 C725.309,8.69459 725.831,21.6207 725.477,35.8827 L710.388,34.7665 Z M723.059,-11.3634 L706.988,33.3944 C706.472,27.7529 705.45,22.6344 704.15,19.1763 L720.298,-25.5757 C721.304,-21.2989 722.269,-16.4647 723.059,-11.3634 Z M682.918,152.644 C679.41,149.583 676.299,144.31 673.817,136.842 L686.752,100.817 L682.918,152.644 Z M685.776,-34.2929 C689.624,-42.133 693.693,-47.7154 697.923,-50.2041 L693.801,5.52333 L685.776,-34.2929 Z M691.205,53.239 C691.864,44.3226 694.51,36.9539 696.986,37.1371 C699.462,37.3202 700.995,44.998 700.335,53.9144 C699.676,62.8308 697.03,70.1994 694.554,70.0163 C692.078,69.8331 690.525,62.434 691.205,53.239 Z M708.911,-49.3913 C712.651,-46.313 715.932,-40.1869 718.584,-31.866 L704.768,6.61476 L708.911,-49.3913 Z M697.739,101.63 L705.233,139.166 C701.679,146.187 697.826,150.945 693.906,153.457 L697.739,101.63 L697.739,101.63 Z M706.208,-50.7119 L701.364,14.7678 C700.575,13.8689 699.687,13.243 698.759,13.1743 C697.83,13.1056 696.86,13.5942 695.947,14.3671 L700.791,-51.1126 C701.663,-51.3283 702.612,-51.5382 703.541,-51.4695 C704.469,-51.4008 705.3,-51.0592 706.208,-50.7119 Z M683.156,-28.3232 L692.522,18.5964 C690.728,21.8255 688.964,26.738 687.623,32.242 L678.334,-14.6718 C679.865,-19.6014 681.454,-24.2467 683.156,-28.3232 Z M666.553,61.5012 C666.764,57.5946 666.996,53.4093 667.284,49.5084 C667.49,46.722 667.753,44.22 667.939,41.7123 L685.581,43.0173 C685.122,46.0651 684.72,49.3973 684.473,52.741 C684.225,56.0846 684.133,59.4397 684.138,62.5219 L666.573,61.2226 L666.553,61.5012 Z M681.075,72.3811 L668.022,108.957 C666.736,97.9358 666.116,85.2827 666.296,71.2879 L681.075,72.3811 L681.075,72.3811 Z M668.99,31.7042 C670.738,17.5452 673.177,4.55805 676.111,-6.71153 L684.002,32.8147 L668.99,31.7042 Z M669.069,116.879 L684.552,73.759 C685.068,79.4004 686.09,84.5189 687.39,87.977 L672.006,130.824 C670.922,126.542 669.957,121.708 669.069,116.879 Z M685.544,153.959 L690.078,92.6585 C690.868,93.5573 691.755,94.1833 692.683,94.252 C693.612,94.3207 694.582,93.8321 695.495,93.0591 L690.96,154.359 C690.166,154.581 689.217,154.791 688.288,154.722 C687.359,154.653 686.529,154.312 685.544,153.959 Z M707.909,133.48 L698.997,88.8356 C700.792,85.6064 702.556,80.694 703.896,75.1899 L712.788,120.113 C711.277,124.764 709.611,129.404 707.909,133.48 Z " fill="#4d4d4d" fill-opacity="1.00" filter="url(#zXHUdWzo)" />			<path d="M-500.406,63.2827 C-477.659,58.8472 -461.936,41.3152 -465.288,24.1238 C-468.64,6.93238 -489.798,-3.40834 -512.545,1.02713 C-535.292,5.46259 -551.015,22.9946 -547.663,40.186 C-544.311,57.3774 -523.153,67.7182 -500.406,63.2827 Z " fill="#dce8eb" fill-opacity="1.00" />			<path d="M-499.964,61.8418 C-478.019,57.1663 -463.095,39.9316 -466.628,23.3471 C-470.162,6.76259 -490.816,-2.89159 -512.76,1.7839 C-534.704,6.4594 -549.629,23.694 -546.095,40.2786 C-542.561,56.8631 -521.908,66.5173 -499.964,61.8418 Z " fill="#000000" fill-opacity="1.00" />			<path d="M-502.053,56.395 C-483.918,52.5774 -471.556,38.3721 -474.441,24.6667 C-477.327,10.9613 -494.367,2.94568 -512.501,6.76329 C-530.636,10.5809 -542.998,24.7861 -540.113,38.4915 C-537.227,52.1969 -520.187,60.2126 -502.053,56.395 Z " fill="#ccdbe0" fill-opacity="1.00" />			<path d="M-509.094,28.1636 L-493.866,6.76641 C-508.87,3.81763 -525.023,7.12547 -535.576,20.6105 L-509.094,28.1636 Z " fill="#0b437f" fill-opacity="1.00" />			<path d="M-509.042,28.0216 L-527.608,53.7703 C-514.108,60.8242 -488.449,59.37 -476.418,38.6352 L-509.042,28.0216 Z " fill="#0b437f" fill-opacity="1.00" />		</g>	</svg>