<?xml version="1.0" encoding="UTF-8"?>
<svg version="1.1" viewBox="0 0 2048 2048" xmlns="http://www.w3.org/2000/svg">
<g transform="translate(1024 1024)">
<path d="m958.19 258.64c83.914-60.049 52.414-150.56-59.276-166.13-103.04-14.36-700.19-52.478-700.19-52.478-33.126-46.287-296.25 83.178-381.63 144.28l-504.94 175.98c-83.909 60.05-285.68 106.78-159.14 155.13 126.53 48.353 806.64 153.11 1004.1 140.44 197.46-12.671 389.36-128.86 474.74-189.96l326.35-207.27z" fill="#1b1b1b"/>
<path d="m-348.62 480.8c54.849 6.15 371.78 46.615 422.88 6.114 36.701-29.088-65.79-114.22-65.79-114.22 1.2618-11.253-41.962-25.495-97.772-31.753l-631.22-59.597c-54.848-6.15-123.42-13.157-124.71-1.707 0 0-8.805 43.953 3.232 75.857 12.815 33.966 93.761 58.589 149.57 64.847l343.8 60.456z"/>
<path d="m567.7-160.76c15.952 8.26 129.5-32.111 137.9-47.638l84.933-65.728c2.563-18.801-5.767-32.436-22.948-35.144l-465.7-32.57c-15.951-8.26-66.702 40.746-75.107 56.978l189.41 63.281c-8.26 15.952 1.562 39.767 17.794 48.171l133.72 12.65z" fill="#616161"/>
<path d="m478.92-193.39c12.424 6.537 101.37-24.429 108.01-36.519l66.71-50.929c6.536-12.423-5.112-20.93-17.754-27.581l-286.99-22.887c-12.424-6.537-28.355-3.963-35.007 8.678l46.942 80.93c-6.537 12.424 1.017 31.085 13.658 37.736l104.43 10.572z" fill="#1d1d1d"/>
<path d="m493.43-123.31c11.882 1.134 7.409-112.4 8.731-124.06l23.883-46.948c1.134-11.883-15.671-12.162-27.762-13.316l-155.52-10.516c-11.882-1.134 7.726 8.499 6.573 20.59l-13.105 137.38c-1.134 11.882 7.521 22.594 19.612 23.748l137.58 13.124z" fill="#a63131" fill-opacity=".7"/>
<path d="m409.91-93.966s-65.759-319.22-84.736-326.27c-7.231 38.1-25.308 344.69-25.308 344.69l110.04-18.423z" fill="#ccdbe0"/>
<path d="m440.3 108.78l-494.76-108.58 323.7 295.78 171.06-187.21z"/>
<path d="m-869.42 233.38c222.47 62.093 884.04 28.353 884.04 28.353l-29.319-178.99-860.57-69.385s-51.371 30.035 5.854 220.02z"/>
<path d="m-449.54-237.81c5.74-21.233-1.616-40.913-9.337-43.555-13.007-4.45-38.667-13.133-44.411-11.05-9.671 3.507-19.626 13.981-19.624 19.151 0.015 38.473-8.163 35.171 21.849 55.694 12.393 8.475 46.819 38.332 46.819 38.332l4.704-58.572z" fill="#646464"/>
<path d="m-477.56-226.56c4.217-15.604-1.289-26.695-16.893-30.913l-27.074-11.323 0.75 26.211c1.08 11.416 3.999 12.281 18.248 21.797l31.879 27.832-6.91-33.604z" fill="#4d4d4d"/>
<defs>
<filter id="g" x="-11.56%" y="0%" width="127.99%" height="110.18%">
<feOffset dx="-0.77" dy="2.85" in="SourceAlpha" result="shadowOffsetOuter1"/>
<feGaussianBlur in="shadowOffsetOuter1" result="shadowBlurOuter1" stdDeviation="0.95"/>
<feFlood flood-color="#000000" flood-opacity=".21"/>
<feComposite in2="shadowBlurOuter1" operator="in"/>
<feMerge>
<feMergeNode/>
<feMergeNode in="SourceGraphic"/>
</feMerge>
</filter>
</defs>
<path d="m-465.69-254.75c6.36-0.99 9.953-3.924 12.652-9.137 0.765-1.478-1.263-10.731-3.682-12.523s-8.833 1.223-10.447 2.793-3.112 0.959-4.82 8.116l-3.979 35.24s3.916-23.499 10.276-24.489z" fill="#4d4d4d" filter="url(#g)"/>
<path d="m319.19-429.84c-133.38-22.869-363.74-37.2-584.88-38.18-150.48 138.22-254.72 303.02-254.72 303.02l819.85 72.113s8.584-185.59 19.758-336.95z" fill="#909090"/>
<path d="m305.02-404.9c-111.07-16.85-382.81-47.986-567.56-44.624-114.97 114.57-147.68 154.12-223.8 256.86 154.26 14.448 640.04 62.039 764.2 73.38-4.79-75.918 11.525-212.65 27.157-285.62z" fill="#ccdbe0"/>
<defs>
<filter id="h" x="0%" y="-14.8%" width="111.63%" height="154.28%">
<feOffset dx="83.33" dy="13.89" in="SourceAlpha" result="shadowOffsetOuter1"/>
<feGaussianBlur in="shadowOffsetOuter1" result="shadowBlurOuter1" stdDeviation="27.78"/>
<feFlood flood-color="#000000" flood-opacity=".33"/>
<feComposite in2="shadowBlurOuter1" operator="in"/>
<feMerge>
<feMergeNode/>
<feMergeNode in="SourceGraphic"/>
</feMerge>
</filter>
</defs>
<path d="m-520.03-168.21c-285.14 110.13-372.72 161.67-374.38 227.98 1.039-3.4984 8.008-17.697 17.471-17.557 85.093 1.2573 493.24 58.236 776.39 69.96 265.87-147.61 399.95-205.92 399.95-205.92s-555.71-86.081-819.43-74.458z" fill="#8a8a8a" filter="url(#h)"/>
<path d="m-40.1 132.04c-35.74 20.788-812.39-56.966-853.15-77.037" fill="none" stroke="#454545" stroke-linecap="square" stroke-width="2.72"/>
<path d="m-41.979 145.19c-35.74 20.789-812.39-56.965-853.15-77.037" fill="none" stroke="#454545" stroke-linecap="square" stroke-width="2.72"/>
<path d="m-42.918 158.81c-35.74 20.789-812.39-56.965-853.15-77.037" fill="none" stroke="#454545" stroke-linecap="square" stroke-width="2.72"/>
<path d="m-41.979 169.61c-35.74 20.789-812.39-56.965-853.15-77.037" fill="none" stroke="#454545" stroke-linecap="square" stroke-width="2.72"/>
<path d="m-43.857 179.95c-35.74 20.788-812.39-56.966-853.15-77.037" fill="none" stroke="#454545" stroke-linecap="square" stroke-width="2.72"/>
<path d="m-42.918 192.62c-35.74 20.789-812.39-56.965-853.15-77.037" fill="none" stroke="#454545" stroke-linecap="square" stroke-width="2.72"/>
<path d="m-40.1 206.71c-35.74 20.788-812.39-56.966-853.15-77.037" fill="none" stroke="#454545" stroke-linecap="square" stroke-width="2.72"/>
<path d="m-36.431 220.2c-35.74 20.789-812.39-56.965-853.15-77.037" fill="none" stroke="#454545" stroke-linecap="square" stroke-width="2.72"/>
<path d="m9.5288 465.93c12.363 43.623 51.379 49.811 87.043 48.89l65.537-1.692-1.692-65.537c-0.921-35.663-30.485-63.74-66.149-62.819l-93.892-30.146s-3.2085 67.681 9.1542 111.3z" fill="#4d4d4d"/>
<path d="m706.39-173.52c-17.754 3.109-29.713 20.143-26.605 37.897l16.91 96.589c3.108 17.754 20.142 29.713 37.896 26.605 17.754-3.1082 29.713-20.142 26.605-37.897l-16.91-96.589c-3.108-17.754-20.142-29.713-37.896-26.605z"/>
<path d="m592.94 149.04c12.362 43.623 26.491 44.783 61.007 45.931 34.516 1.149 38.022-3.171 38.022-3.171l2.45-117.9c-0.921-35.663-14.509-98.651-50.173-97.73l-44.188 35.534s-19.481 93.716-7.118 137.34z" fill="#4d4d4d"/>
<path d="m264.45 330.99c12.654-107.41-19.173-199.44-71.088-205.55-51.915-6.116-104.26 75.996-116.91 183.4-12.654 107.41 19.173 199.44 71.088 205.55 51.915 6.116 104.26-75.996 116.91-183.4z" fill="#1e1e1e"/>
<path d="m738.47 44.644c3.498-82.419-14.052-150.1-39.2-151.17-25.147-1.068-48.37 64.881-51.868 147.3-3.499 82.419 14.051 150.1 39.199 151.17 25.148 1.067 48.37-64.881 51.869-147.3z" fill="#1e1e1e"/>
<path d="m241.58 333.06c5.977-78.662-17.219-144.56-51.811-147.19-34.591-2.628-67.479 59.009-73.456 137.67-5.978 78.662 17.219 144.56 51.81 147.19 34.592 2.629 67.479-59.008 73.457-137.67z" fill="#4d4d4d" fill-opacity=".67"/>
<path d="m725.18 54.707c4.481-58.972-5.276-107.8-21.794-109.05-16.517-1.2551-33.54 45.534-38.021 104.51-4.482 58.972 5.276 107.8 21.793 109.05 16.518 1.255 33.541-45.533 38.022-104.51z" fill="#4d4d4d" fill-opacity=".67"/>
<path d="m-52.192 341.83s56.07 16.815 151.34-7.081c46.794-340.16 211.32-273.69 175.58-76.85 0.291-0.18 0.583-0.36 0.874-0.54 144.91-89.675 280.28-136.2 379.26-197.18 44.279-246.29 113.91-212.96 101.79-86.567 4.773-6.1112 9.288-12.431 13.532-18.983 21.261-32.823 22.855-210.75 22.855-210.75s-639.76 265.08-891.65 368.23c98.441 23.158 46.423 229.72 46.423 229.72z" fill="#616161"/>
<path d="m-25.874 418.56c28.843-1.359 56.466-0.991 90.13-12.687 37.909-42.84 35.8-89.162 41.459-107.51-477.49 35.607-759.64-22.999-1004.1-73.102 0.726 36.938-2.454 73.422 5.368 78.061 7.345 4.355 36.578 11.692 158.29 36.579 198.2 40.526 619.68 82.863 708.85 78.661z" fill="#454545"/>
<path d="m475.53-163.01c4.744-7.674-3.483-92.986 10.949-132.41 2.515-6.87 7.127-12.366 31.043-9.791-39.767-7.558-41.643-0.123-44.908 11.509-6.44 22.938-2.469 134.07-2.469 134.07s4.144 33.714 5.385-3.375z"/>
<path d="m262.68 5.6132s-159.38 62.065-363.9 106.41c121.15-82.993 608-311.95 872.61-413.53 26.91-10.33 21.492 50.582 21.492 50.582l-530.2 256.54z" fill="#bebebe"/>
<path d="m297.61-93.293l329.46-149.13-10.023-10.959-25.865 0.992-286.28 144.32-7.293 14.773z"/>
<path d="m454.98-153.52c7.65-4.897 8.439-20.668 8.439-20.668s4.537-31.054-3.597-41.202c-8.802-10.98-70.091-10.545-90.895-5.767-7.176 1.648-24.703 25.59-33.967 26.179-35.511 2.256-26.65-3.239-30.054 3.008-1.58 2.9-1.445 13.361-2.569 30.466-1.312 19.972-2.131 56.212-2.993 67.192-0.393 4.9957 16.753-19.343 31.216-25.968 31.566-14.459 31.677-12.498 49.626-17.579 37.837-10.711 67.144-10.764 74.794-15.661z" fill="#858585"/>
<path d="m421.74-195.53c11.246-0.981 18.568-2.113 21.173-3.248 2.604-1.135 5.695-1.865 9.524-7.333 0 0 6.261-6.419 3.339-9.537-2.921-3.118-13.654-3.592-28.832-4.675-15.179-1.082-55.809 2.271-55.809 2.271l-22.998 24.978 73.603-2.456z" fill="#bebebe" fill-opacity=".94"/>
<path d="m339.35-133.72c-0.885-17.959-10.397-44.945-17.538-56.019-5.081 27.859-14.382 76.163-14.382 76.163s15.502-13.926 31.92-20.144z" fill="#bebebe" fill-opacity=".69"/>
<defs>
<filter id="f" x="-11.38%" y="0%" width="134.14%" height="138.97%">
<feOffset dx="0.00" dy="5.93" in="SourceAlpha" result="shadowOffsetOuter1"/>
<feGaussianBlur in="shadowOffsetOuter1" result="shadowBlurOuter1" stdDeviation="2.14"/>
<feFlood flood-color="#000000" flood-opacity=".34"/>
<feComposite in2="shadowBlurOuter1" operator="in"/>
<feMerge>
<feMergeNode/>
<feMergeNode in="SourceGraphic"/>
</feMerge>
</filter>
</defs>
<path d="m532.78-123.63l35.387-11.489s-0.795-12.73-5.709-14.47c-4.915-1.741-28.231 6.257-30.997 10.73s1.319 15.229 1.319 15.229z" filter="url(#f)"/>
<path d="m276.65 162.75c1.682 13.599 1.934 11.047 2.275 19.258 101.08-48.449 390.28-188.37 390.28-188.37l6.357-23.048s-299.67 141.36-398.91 192.16z"/>
<path d="m277.88 168l12.586-2.947 371.54-179.27 12.001-10.333-396.13 192.54z" fill="#ccdbe0"/>
<path d="m534.88-204.92c61.411 48.469 40.335 173.46 8.114 321.11" fill="none" stroke="#000" stroke-linecap="square" stroke-width="1.51"/>
<path d="m300.23-93.946c50.046 37.772 16.268 282.43 0.76 337.83" fill="none" stroke="#000" stroke-linecap="square" stroke-width="1.51"/>
<path d="m644 91.39c10.289-24.615 12.208-38.591 12.208-38.591l-380.19 198.69-5.533 45.351s277.18-144.24 373.52-205.45z"/>
<defs>
<filter id="c" x="0%" y="-23.05%" width="127.47%" height="156.59%">
<feOffset dx="13.61" dy="-3.71" in="SourceAlpha" result="shadowOffsetOuter1"/>
<feGaussianBlur in="shadowOffsetOuter1" result="shadowBlurOuter1" stdDeviation="4.95"/>
<feFlood flood-color="#000000" flood-opacity=".93"/>
<feComposite in2="shadowBlurOuter1" operator="in"/>
<feMerge>
<feMergeNode/>
<feMergeNode in="SourceGraphic"/>
</feMerge>
</filter>
</defs>
<path d="m-875.08 300.03l85.501 15.127-1.314-45.758-84.264-13.272 0.077 43.903z" fill="#fcc329" fill-opacity=".93" filter="url(#c)"/>
<defs>
<filter id="d" x="-4.99%" y="0%" width="112.97%" height="152.31%">
<feOffset dx="-10.49" dy="53.77" in="SourceAlpha" result="shadowOffsetOuter1"/>
<feGaussianBlur in="shadowOffsetOuter1" result="shadowBlurOuter1" stdDeviation="20.98"/>
<feFlood flood-color="#000000" flood-opacity=".33"/>
<feComposite in2="shadowBlurOuter1" operator="in"/>
<feMerge>
<feMergeNode/>
<feMergeNode in="SourceGraphic"/>
</feMerge>
</filter>
</defs>
<path d="m-22.873 355.46c30.312 0.111 92.728-30.057 125.66-47.633 4.015-27.942 10.059-50.147 15.718-68.497-477.49 35.607-802.5-16.778-1047-66.881-5.28 36.938-8.712 58.148 6.743 69.027 18.264 12.856 68.278 18.52 189.99 43.407 198.2 40.526 619.59 70.251 708.85 70.577z" filter="url(#d)"/>
<path d="m-40.205 289.61c48.844-11.28 94.206-28.05 129.15-39.577 34.945-11.527 27.106-7.349 32.765-25.699-477.49 35.607-771.9-27.427-1016.4-77.53-88.574 42.61 5.557 48.363 190.06 79.36 184.5 30.997 594.78 79.522 664.38 63.446z" fill="#ccdbe0"/>
<path d="m-216.12 339.79l98.247 5.018 2.301-45.322-100.09-5.755-0.458 46.059z" fill="#ff9702" fill-opacity=".8"/>
<path d="m-887.94 245.47l82.035 16.072 6.353-41.269-83.877-16.072-4.511 41.269z" fill="#ff9702" fill-opacity=".85"/>
<path d="m-707.48 295.04c8.431 9.056 314.3 53.616 321.13 48.562s12.714-61.649 1.278-73.33c-11.437-11.681-309.48-46.176-317.24-42.082s-13.597 57.794-5.165 66.85z" fill="#ecf1f2"/>
<defs>
<filter id="i" x="0%" y="-38.22%" width="116.99%" height="177.04%">
<feOffset dx="11.44" dy="-9.59" in="SourceAlpha" result="shadowOffsetOuter1"/>
<feGaussianBlur in="shadowOffsetOuter1" result="shadowBlurOuter1" stdDeviation="4.95"/>
<feFlood flood-color="#000000" flood-opacity=".77"/>
<feComposite in2="shadowBlurOuter1" operator="in"/>
<feMerge>
<feMergeNode/>
<feMergeNode in="SourceGraphic"/>
</feMerge>
</filter>
</defs>
<path d="m-190.93 402.09l123.85 5.23 1.7787-45.14-123.23-5.849-2.397 45.759z" fill="#fcc329" fill-opacity=".72" filter="url(#i)"/>
<path d="m-115.98 219.58c25.473-2.377 44.17-24.922 41.794-50.395-2.3765-25.473-24.921-44.17-50.395-41.794-25.473 2.377-44.17 24.922-41.794 50.395 2.377 25.473 24.922 44.17 50.395 41.794z" fill="#e8e6cb"/>
<path d="m-745.43 150.24c23.888-2.977 40.816-24.725 37.839-48.613s-24.725-40.816-48.613-37.839-40.816 24.725-37.839 48.613c2.977 23.888 24.725 40.816 48.613 37.839z" fill="#e8e6cb"/>
<path d="m-837.73 134.13c22.55-2.663 38.649-23.073 35.986-45.623-2.663-22.55-23.074-38.649-45.624-35.986s-38.649 23.074-35.986 45.624c2.663 22.55 23.074 38.649 45.624 35.985z" fill="#e8e6cb"/>
<path d="m-244.95 211.26c26.928-4.19 45.335-29.381 41.145-56.309-4.191-26.928-29.381-45.335-56.309-41.144-26.928 4.19-45.335 29.381-41.145 56.309s29.381 45.335 56.309 41.144z" fill="#e8e6cb"/>
<path d="m-445.03 206.09c5.148 0 9.304-8.088 9.394-13.095l-1.562-81.718c0-7.246-7.455-16.356-12.694-16.356l-65.265-8.864c-5.149 0-9.395 5.8481-9.395 13.222l2.121 73.486c0 7.247 2.175 23.286 11.869 28.565l65.532 4.76z" fill="#ccdbe0"/>
<path d="m-448.38 201.42c4.711 0.031 8.563-7.343 8.676-11.925l-0.928-74.783c0.044-6.631-6.721-15.012-11.515-15.044l-59.665-8.5109c-4.711-0.0316-8.632 5.2935-8.677 12.041l1.49 67.254c-0.045 6.631 1.848 21.32 10.685 26.21l59.934 4.758z"/>
<path d="m-533.61 196.86c5.149 0 8.438-5.49 8.529-10.498l-5.89-92.393c0-7.2465-10.052-11.74-15.291-11.74l-57.764-4.2478c-5.148 0-9.105 6.7137-9.105 14.087 0 0 5.04 61.374 8.897 75.144 3.856 13.769 6.073 18.743 16.055 24.31l54.569 5.337z" fill="#ccdbe0"/>
<path d="m-537.2 191.02c4.642-0.029 7.577-4.999 7.63-9.514l-5.837-83.272c-0.041-6.5338-9.129-10.528-13.853-10.498l-52.106-3.5013c-4.643 0.0293-8.172 6.1051-8.13 12.754 0 0 4.893 55.309 8.449 67.702 3.556 12.394 5.583 16.865 14.615 21.829l49.232 4.501z"/>
<path d="m-505.98 196.16c-2.574-17.537-7.864-79.125-4.069-103.16" fill="none" stroke="#4d4d4d" stroke-linecap="square" stroke-width=".76"/>
<path d="m-498.78 196.27c-2.574-17.537-6.969-78.901-3.173-102.94" fill="none" stroke="#4d4d4d" stroke-linecap="square" stroke-width=".76"/>
<path d="m-491.36 197.04c-2.574-17.538-7.416-78.678-3.621-102.72" fill="none" stroke="#4d4d4d" stroke-linecap="square" stroke-width=".61"/>
<path d="m-483.3 197.47c-2.573-17.537-6.968-78.118-3.173-102.16" fill="none" stroke="#4d4d4d" stroke-linecap="square" stroke-width=".61"/>
<path d="m-474.47 198.2c-2.574-17.538-6.969-77.67-3.174-101.71" fill="none" stroke="#4d4d4d" stroke-linecap="square" stroke-width="1.36"/>
<path d="m-466.61 198.83c-2.574-17.537-7.528-76.662-3.733-100.7" fill="none" stroke="#4d4d4d" stroke-linecap="square" stroke-width="1.06"/>
<path d="m-458.98 199.71c-2.574-17.537-7.417-76.55-3.621-100.59" fill="none" stroke="#4d4d4d" stroke-linecap="square" stroke-width=".91"/>
<path d="m-451.37 199.91c-2.574-17.537-7.08-75.655-3.285-99.692" fill="none" stroke="#4d4d4d" stroke-linecap="square" stroke-width="1.06"/>
<path d="m-37.882 291.94c48.844-11.281 94.206-28.051 129.15-39.578 34.946-11.527 27.106-7.349 32.765-25.699-477.49 35.608-771.9-27.427-1016.4-77.53-88.574 42.61 5.557 48.363 190.06 79.36 184.5 30.998 594.78 79.523 664.38 63.447z" fill="#ccdbe0"/>
<path d="m-590.38 184.06c-3.062-17.459-10.648-74.589-7.525-98.723" fill="none" stroke="#4d4d4d" stroke-linecap="square" stroke-width=".61"/>
<path d="m-583.3 185.93c-3.062-17.459-9.862-75.78-6.739-99.914" fill="none" stroke="#4d4d4d" stroke-linecap="square" stroke-width=".76"/>
<path d="m-575.63 186.61c-3.062-17.459-10.188-76.007-7.065-100.14" fill="none" stroke="#4d4d4d" stroke-linecap="square" stroke-width=".76"/>
<path d="m-567.79 187.28c-3.063-17.458-9.726-75.923-6.603-100.06" fill="none" stroke="#4d4d4d" stroke-linecap="square" stroke-width=".45"/>
<path d="m-559.87 188.46c-3.062-17.459-8.786-76.634-5.663-100.77" fill="none" stroke="#4d4d4d" stroke-linecap="square" stroke-width=".45"/>
<path d="m-551.18 189.22c-3.063-17.459-9.665-76.423-6.542-100.56" fill="none" stroke="#4d4d4d" stroke-linecap="square" stroke-width=".45"/>
<path d="m-543.53 189.89c-3.062-17.459-9.55-76.314-6.427-100.45" fill="none" stroke="#4d4d4d" stroke-linecap="square" stroke-width=".76"/>
<path d="m-535.92 189.87c-3.062-17.459-9.189-75.428-6.066-99.562" fill="none" stroke="#4d4d4d" stroke-linecap="square" stroke-width=".61"/>
<path d="m298.15-93.727s3.466-1.7274 7.623-3.166c5.146-73.382 24.139-299.12 24.139-299.12s22.791 25.975 48.112 172.98c5.83-0.127 4.725-0.574 4.725-0.574s-27.067-145.13-46.523-191.04c-5.536-13.063-10.939-15.996-17.241-15.159-6.245 78.012-20.835 336.07-20.835 336.07z"/>
<path d="m790.29-192.31c0.483-28.782 1.362-37.854 1.772-46.082l-7.949 3.309c-2.775 0.48-4.676 3.116-4.188 5.939l5.551 32.084c0.48 2.775 1.99 5.238 4.814 4.75z" fill="#c1281a" fill-opacity=".55"/>
<defs>
<filter id="b" x="-3.95%" y="0%" width="114.36%" height="112.5%">
<feOffset dx="0.52" dy="6.14" in="SourceAlpha" result="shadowOffsetOuter1"/>
<feGaussianBlur in="shadowOffsetOuter1" result="shadowBlurOuter1" stdDeviation="1.08"/>
<feFlood flood-color="#000000" flood-opacity=".46"/>
<feComposite in2="shadowBlurOuter1" operator="in"/>
<feMerge>
<feMergeNode/>
<feMergeNode in="SourceGraphic"/>
</feMerge>
</filter>
</defs>
<path d="m757.86-69.015c1.387 1.4033 4.004 0.3716 6.638-2.1826l14.836-12.74c2.656-2.6248 4.342-3.472 14.085-16.522 3.017-4.041-0.135-24.729-0.135-24.729-1.387-1.404-2.943-11.864-5.646-9.194l-1.464 6.291c-8.021 10.759-7.881 12.498-32.948 28.81l4.634 30.267z" filter="url(#b)"/>
<defs>
<filter id="e" x="-3.42%" y="-5.47%" width="139.86%" height="122.14%">
<feOffset dx="20.05" dy="8.48" in="SourceAlpha" result="shadowOffsetOuter1"/>
<feGaussianBlur in="shadowOffsetOuter1" result="shadowBlurOuter1" stdDeviation="12.34"/>
<feFlood flood-color="#000000" flood-opacity=".37"/>
<feComposite in2="shadowBlurOuter1" operator="in"/>
<feMerge>
<feMergeNode/>
<feMergeNode in="SourceGraphic"/>
</feMerge>
</filter>
</defs>
<path d="m196.76 178.78c-36.211-4.125-73.111 58.72-82.41 140.35-9.3 81.633 12.52 151.17 48.731 155.29s73.11-58.72 82.41-140.35c9.299-81.634-12.521-151.17-48.731-155.29zm43.511 154.7c-0.586 5.148-1.378 10.645-2.127 15.775l-37.026-4.218c0.95-3.989 1.779-8.365 2.281-12.777 0.503-4.413 0.679-8.863 0.651-12.963l37.189 4.236c-0.172 2.96-0.549 6.27-0.968 9.947zm-4.572 28.533c-3.684 17.833-8.994 33.99-15.073 48.197l-16.244-51.764 31.317 3.567zm-25.369-55.783l28.658-48.512c2.645 15.946 3.817 33.214 3.149 52.135l-31.807-3.623zm26.448-59.566l-33.62 57.259c-1.12-7.578-3.302-14.531-6.062-19.315l33.784-57.24c2.144 5.831 4.205 12.398 5.898 19.296zm-83.686 212.47c-7.411-4.569-13.997-12.025-19.269-22.31l27.06-46.086-7.791 68.396zm4.983-248.26c8.065-9.883 16.611-16.732 25.512-19.443l-8.378 73.544-17.134-54.101zm11.929 117.2c1.34-11.767 6.875-21.194 12.094-20.599 5.22 0.594 8.493 11.024 7.153 22.791-1.341 11.767-6.876 21.194-12.095 20.6-5.22-0.595-8.535-10.657-7.152-22.792zm36.745-134.01c7.899 4.624 14.849 13.238 20.485 24.683l-28.905 49.228 8.42-73.911zm-22.704 199.3l16.001 50.992c-7.45 8.836-15.544 14.619-23.792 17.404l7.791-68.396zm16.999-201.44l-9.844 86.414c-1.668-1.308-3.542-2.266-5.499-2.489s-3.998 0.289-5.918 1.188l9.843-86.414c1.837-0.163 3.836-0.308 5.793-0.085s3.71 0.795 5.625 1.386zm-48.458 26.514l20.002 63.739c-3.765 4.041-7.455 10.326-10.25 17.457l-19.839-63.721c3.201-6.34 6.523-12.294 10.087-17.475zm-34.492 117.13c0.424-5.166 0.889-10.701 1.475-15.849 0.419-3.677 0.959-6.968 1.336-10.277l37.19 4.236c-0.951 3.989-1.779 8.365-2.282 12.777-0.503 4.413-0.679 8.863-0.651 12.963l-37.026-4.217-0.042 0.367zm30.667 16.531l-27.307 46.803c-2.77-14.843-4.147-31.762-3.847-50.352l31.154 3.549zm-25.695-55.821c3.604-18.586 8.672-35.516 14.793-50.091l16.85 53.696-31.643-3.605zm0.641 113.31l32.39-55.164c1.119 7.578 3.301 14.531 6.061 19.315l-32.185 54.815c-2.308-5.85-4.369-12.417-6.266-18.966zm34.926 51.658l9.216-80.898c1.668 1.307 3.542 2.266 5.499 2.489 1.958 0.223 3.999-0.29 5.919-1.189l-9.216 80.898c-1.673 0.182-3.672 0.327-5.63 0.104-1.957-0.223-3.709-0.795-5.788-1.404zm47.023-24.07l-19.032-60.649c3.765-4.041 7.455-10.326 10.25-17.457l18.99 61.016c-3.159 5.973-6.644 11.908-10.208 17.09z" fill="#4d4d4d" filter="url(#e)"/>
<defs>
<filter id="a" x="-4.24%" y="-4.26%" width="149.42%" height="117.25%">
<feOffset dx="11.82" dy="5.00" in="SourceAlpha" result="shadowOffsetOuter1"/>
<feGaussianBlur in="shadowOffsetOuter1" result="shadowBlurOuter1" stdDeviation="7.27"/>
<feFlood flood-color="#000000" flood-opacity=".37"/>
<feComposite in2="shadowBlurOuter1" operator="in"/>
<feMerge>
<feMergeNode/>
<feMergeNode in="SourceGraphic"/>
</feMerge>
</filter>
</defs>
<path d="m704.2-60.386c-17.178-1.2707-34.816 47.854-39.392 109.71-4.576 61.858 5.642 113.04 22.82 114.31 17.178 1.271 34.817-47.853 39.392-109.71 4.576-61.857-5.642-113.04-22.82-114.31zm20.344 114.13c-0.288 3.9009-0.675 8.0747-1.041 11.97l-17.565-1.2993c0.459-3.0479 0.861-6.3801 1.109-9.7237 0.247-3.3436 0.34-6.6987 0.334-9.7809l17.642 1.305c-0.087 2.2348-0.273 4.7426-0.479 7.529zm-2.226 21.688c-1.784 13.596-4.337 26.014-7.25 37.005l-7.607-38.104 14.857 1.099zm-11.93-40.666l13.698-37.929c1.223 11.857 1.745 24.783 1.391 39.045l-15.089-1.1162zm12.671-46.13l-16.071 44.758c-0.516-5.6415-1.538-10.76-2.838-14.218l16.148-44.752c1.006 4.2768 1.971 9.111 2.761 14.212zm-40.141 164.01c-3.508-3.061-6.619-8.334-9.101-15.802l12.935-36.025-3.834 51.827zm2.858-186.94c3.848-7.8401 7.917-13.422 12.147-15.911l-4.122 55.727-8.025-39.816zm5.429 87.532c0.659-8.9164 3.305-16.285 5.781-16.102 2.476 0.1831 4.009 7.8609 3.349 16.777-0.659 8.9164-3.305 16.285-5.781 16.102-2.476-0.1832-4.029-7.5823-3.349-16.777zm17.706-102.63c3.74 3.0783 7.021 9.2044 9.673 17.525l-13.816 38.481 4.143-56.006zm-11.172 151.02l7.494 37.536c-3.554 7.021-7.407 11.779-11.327 14.291l3.833-51.827zm8.469-152.34l-4.844 65.48c-0.789-0.8989-1.677-1.5248-2.605-1.5935-0.929-0.0687-1.899 0.4199-2.812 1.1928l4.844-65.48c0.872-0.2157 1.821-0.4256 2.75-0.3569 0.928 0.0687 1.759 0.4103 2.667 0.7576zm-23.052 22.389l9.366 46.92c-1.794 3.2291-3.558 8.1416-4.899 13.646l-9.289-46.914c1.531-4.9296 3.12-9.5749 4.822-13.651zm-16.603 89.824c0.211-3.9066 0.443-8.0919 0.731-11.993 0.206-2.7864 0.469-5.2884 0.655-7.7961l17.642 1.305c-0.459 3.0478-0.861 6.38-1.108 9.7237-0.248 3.3436-0.34 6.6987-0.335 9.7809l-17.565-1.2993-0.02 0.2786zm14.522 10.88l-13.053 36.576c-1.286-11.021-1.906-23.674-1.726-37.669l14.779 1.0932zm-12.085-40.677c1.748-14.159 4.187-27.146 7.121-38.416l7.891 39.526-15.012-1.1105zm0.079 85.175l15.483-43.12c0.516 5.6414 1.538 10.76 2.838 14.218l-15.384 42.847c-1.084-4.282-2.049-9.116-2.937-13.945zm16.475 37.08l4.534-61.3c0.79 0.8988 1.677 1.5248 2.605 1.5935 0.929 0.0687 1.899-0.4199 2.812-1.1929l-4.535 61.3c-0.794 0.222-1.743 0.432-2.672 0.363s-1.759-0.41-2.744-0.763zm22.365-20.479l-8.912-44.644c1.795-3.2292 3.559-8.1416 4.899-13.646l8.892 44.923c-1.511 4.651-3.177 9.291-4.879 13.367z" fill="#4d4d4d" filter="url(#a)"/>
<path d="m-500.41 63.283c22.747-4.4355 38.47-21.968 35.118-39.159-3.352-17.191-24.51-27.532-47.257-23.097-22.747 4.4355-38.47 21.967-35.118 39.159s24.51 27.532 47.257 23.097z" fill="#dce8eb"/>
<path d="m-499.96 61.842c21.945-4.6755 36.869-21.91 33.336-38.495-3.534-16.585-24.188-26.239-46.132-21.563-21.944 4.6755-36.869 21.91-33.335 38.495 3.534 16.584 24.187 26.239 46.131 21.563z"/>
<path d="m-502.05 56.395c18.135-3.8176 30.497-18.023 27.612-31.728-2.886-13.705-19.926-21.721-38.06-17.903-18.135 3.8176-30.497 18.023-27.612 31.728 2.886 13.705 19.926 21.721 38.06 17.904z" fill="#ccdbe0"/>
<path d="m-509.09 28.164l15.228-21.397c-15.004-2.9488-31.157 0.35906-41.71 13.844l26.482 7.5531z" fill="#0b437f"/>
<path d="m-509.04 28.022l-18.566 25.749c13.5 7.0539 39.159 5.5997 51.19-15.135l-32.624-10.614z" fill="#0b437f"/>
</g>
</svg>
